<?xml version="1.0" encoding="UTF-8"?>
<svg width="28px" height="28px" viewBox="0 0 28 28" version="1.1" xmlns="http://www.w3.org/2000/svg" xmlns:xlink="http://www.w3.org/1999/xlink">
    <!-- Generator: sketchtool 51.2 (57519) - http://www.bohemiancoding.com/sketch -->
    <title>B787A683-267A-4C87-B224-A26483999FBE</title>
    <desc>Created with sketchtool.</desc>
    <defs></defs>
    <g id="Page-1" stroke="none" stroke-width="1" fill="none" fill-rule="evenodd">
        <g id="Icon-Booking" transform="translate(-606.000000, -276.000000)" fill="#8E8573">
            <g id="01" transform="translate(100.000000, 260.000000)">
                <g id="icon-order" transform="translate(506.000000, 16.000000)">
                    <path d="M26.7272727,14 C26.7272727,6.97004763 21.0301398,1.27272727 14,1.27272727 C6.96986023,1.27272727 1.27272727,6.97004763 1.27272727,14 C1.27272727,21.0295405 6.97008469,26.7272727 14,26.7272727 C21.0299153,26.7272727 26.7272727,21.0295405 26.7272727,14 Z M28,14 C28,21.7324296 21.7328419,28 14,28 C6.26715808,28 1.42108547e-14,21.7324296 1.42108547e-14,14 C1.42108547e-14,6.26714914 6.26694299,0 14,0 C21.733057,0 28,6.26714914 28,14 Z M15.7421085,16.153851 L13.2842169,11.0057986 L11.0609385,10.4150384 L9.92541133,12.3454557 L12.3824497,17.4935081 L15.7421085,16.153851 Z M12.0923827,11.5842682 C12.0923827,11.8735031 11.8483851,12.10866 11.545521,12.10866 C11.2452163,12.10866 11.0012188,11.8735031 11.0012188,11.5842682 C11.0012188,11.2950334 11.2452163,11.0615152 11.545521,11.0615152 C11.8483851,11.0615152 12.0923827,11.2950334 12.0923827,11.5842682 Z M11.0199143,9 C11.0115229,8.86798783 11.00484,8.72829283 11.0025362,8.57746479 C10.9936724,8.40751174 11.009184,8.18309859 11.0313434,7.96995305 C11.0468549,7.8657277 11.0623665,7.75868545 11.0845259,7.65258216 C11.1096398,7.54553991 11.1354924,7.43943662 11.161345,7.33051643 C11.2854376,6.90422535 11.4811787,6.4741784 11.7596483,6.11361502 C12.0359018,5.75305164 12.3778949,5.44037559 12.7745478,5.25164319 C12.8705718,5.20093897 12.9710276,5.15868545 13.0751767,5.1286385 C13.1778485,5.08920188 13.2819975,5.06666667 13.3883626,5.04694836 C13.5973994,5.0028169 13.8226864,5.00187793 14.0007,5 L14.1425201,5.00093897 L14.2304189,5.0028169 L14.3020676,5.0084507 C14.3980916,5.01690141 14.4837745,5.01690141 14.6026965,5.04507042 C14.7171866,5.0657277 14.8265062,5.08920188 14.9269621,5.1286385 C15.0288952,5.15868545 15.1300897,5.2 15.227591,5.25164319 C15.6235052,5.43849765 15.9669756,5.75305164 16.2417518,6.11267606 C16.52096,6.47323944 16.7174398,6.90328638 16.8407937,7.33051643 C16.9656249,7.75774648 17.0077277,8.19061033 16.9988639,8.57934272 C16.9968495,8.72896696 16.9905743,8.8681865 16.9823975,9 L20.2321755,9 C20.2321755,9 19.821816,11.7091895 21,21 L14.1279707,21 L7,21 C8.17818403,11.7091895 7.77123705,9 7.77123705,9 L11.0199143,9 Z M11.3646495,9 L16.6353538,9 C16.6262001,8.86887321 16.6162744,8.73505471 16.604427,8.6028169 C16.5711879,8.26948357 16.4943688,7.92112676 16.366583,7.58497653 C16.2358427,7.24976526 16.0482266,6.93333333 15.8185077,6.66197183 C15.5858342,6.38967136 15.3007169,6.18591549 14.9956561,6.04319249 C14.9203143,6.00469484 14.8412791,5.97464789 14.762244,5.95399061 C14.6817316,5.92488263 14.6056511,5.91267606 14.5317865,5.89953052 C14.4653083,5.87981221 14.3604206,5.87981221 14.2673512,5.87511737 L14.1957026,5.8713615 L14.1425201,5.87230047 L14.0007,5.8741784 C13.800527,5.8713615 13.6439341,5.8685446 13.481432,5.89765258 C13.3987036,5.91079812 13.3174526,5.92488263 13.2398947,5.95399061 C13.1586437,5.97464789 13.0818245,6.00469484 13.0050053,6.04225352 C12.7006832,6.18403756 12.4140886,6.38873239 12.1828924,6.66103286 C11.9516962,6.93239437 11.7633415,7.24882629 11.6340784,7.58403756 C11.6052713,7.67042254 11.5757254,7.75492958 11.5469182,7.83943662 C11.5240202,7.92488263 11.5011222,8.01032864 11.4804401,8.09483568 C11.4435078,8.26384977 11.4087914,8.41220657 11.3954958,8.6028169 C11.3833343,8.73459297 11.3735565,8.86853349 11.3646495,9 Z" id="Fill-353"></path>
                </g>
            </g>
        </g>
    </g>
</svg>