<?xml version="1.0" encoding="UTF-8" standalone="no"?>
<svg width="105px" height="27px" viewBox="0 0 105 27" version="1.1" xmlns="http://www.w3.org/2000/svg" xmlns:xlink="http://www.w3.org/1999/xlink">
    <!-- Generator: Sketch 46.1 (44463) - http://www.bohemiancoding.com/sketch -->
    <title>asiamiles-en</title>
    <desc>Created with Sketch.</desc>
    <defs></defs>
    <g id="icons" stroke="none" stroke-width="1" fill="none" fill-rule="evenodd">
        <g id="asiamiles" transform="translate(-2.000000, 0.000000)" fill="#4C4C4C">
            <g id="asiamiles-en" transform="translate(2.000000, 0.000000)">
                <g id="Group-1680" transform="translate(10.255591, 16.323239)">
                    <path d="M60.7381818,10.589035 C59.3904545,10.589035 58.0827273,9.95394528 57.4059091,8.97172863 L57.3481818,8.88714244 L58.4818182,7.88412591 L58.555,7.98026759 C59.0972727,8.69347243 59.9081818,9.1196389 60.7240909,9.1196389 C61.8136364,9.1196389 62.4909091,8.61674398 62.4909091,7.80739746 C62.4909091,7.01330419 62.0681818,6.53167137 60.9318182,6.02970089 L60.0204545,5.63034315 C58.5118182,4.97722686 57.7781818,4.00517904 57.7781818,2.65873335 C57.7781818,0.997978335 59.3118182,0.00559285714 60.7945455,0.00559285714 C61.9640909,0.00559285714 62.9590909,0.468736895 63.6718182,1.34510525 L63.7368182,1.42553146 L62.6804545,2.49972981 L62.6018182,2.40451257 C62.0559091,1.74446299 61.52,1.47545118 60.7522727,1.47545118 C60.0431818,1.47545118 59.28,1.85447125 59.28,2.68739097 C59.28,3.38210702 59.6872727,3.84756216 60.6854545,4.29406629 L61.5959091,4.69342403 C63.2409091,5.42465543 64.0063636,6.36897007 64.0063636,7.66503383 C64.0063636,9.41407279 62.6927273,10.589035 60.7381818,10.589035" id="Fill-1676"></path>
                    <path d="M3.5845,10.589035 C2.23677273,10.589035 0.929045455,9.95394528 0.252227273,8.97172863 L0.1945,8.88714244 L1.32813636,7.88412591 L1.40131818,7.98026759 C1.94359091,8.69347243 2.75404545,9.1196389 3.57040909,9.1196389 C4.66040909,9.1196389 5.33722727,8.61674398 5.33722727,7.80739746 C5.33722727,7.01330419 4.91495455,6.53167137 3.77813636,6.02970089 L2.86677273,5.63034315 C1.35813636,4.97722686 0.6245,4.00517904 0.6245,2.65873335 C0.6245,0.997978335 2.15813636,0.00559285714 3.64040909,0.00559285714 C4.80995455,0.00559285714 5.80540909,0.468736895 6.51813636,1.34510525 L6.58313636,1.42553146 L5.52677273,2.49972981 L5.44768182,2.40451257 C4.90222727,1.74446299 4.36631818,1.47545118 3.59813636,1.47545118 C2.88904545,1.47545118 2.12586364,1.85447125 2.12586364,2.68739097 C2.12586364,3.38210702 2.53313636,3.84756216 3.53177273,4.29406629 L4.44268182,4.69342403 C6.08722727,5.42465543 6.85268182,6.36897007 6.85268182,7.66503383 C6.85268182,9.41407279 5.53904545,10.589035 3.5845,10.589035" id="Fill-1678"></path>
                </g>
                <polygon id="Fill-1681" points="60.6145 26.7981981 60.6145 16.4430924 66.5899545 16.4430924 66.5899545 17.9268174 62.1158636 17.9268174 62.1158636 20.7648457 65.7485909 20.7648457 65.7485909 22.2481084 62.1158636 22.2481084 62.1158636 25.3144732 66.5899545 25.3144732 66.5899545 26.7981981"></polygon>
                <polygon id="Fill-1682" points="53.3351818 26.7981981 53.3351818 16.4430924 54.8365455 16.4430924 54.8365455 25.3001444 59.1988182 25.3001444 59.1988182 26.7981981"></polygon>
                <polygon id="Fill-1683" points="49.3660455 26.7985217 50.8674091 26.7985217 50.8674091 16.443416 49.3660455 16.443416"></polygon>
                <polygon id="Fill-1684" points="45.3970909 26.7981981 45.3970909 19.9374726 41.933 23.8741969 38.4689091 19.9374726 38.4689091 26.7981981 36.9675455 26.7981981 36.9675455 16.1472719 41.933 21.7073115 46.8984545 16.1472719 46.8984545 26.7981981"></polygon>
                <path d="M31.8312727,26.7981981 L26.7994545,16.1800895 L21.7671818,26.7981981 L23.3926364,26.7981981 L24.6267273,24.1450576 L28.9726364,24.1450576 L30.2062727,26.7981981 L31.8312727,26.7981981 Z M28.4821818,22.8332784 L25.1162727,22.8332784 L26.7994545,19.2104012 L28.4821818,22.8332784 Z" id="Fill-1685"></path>
                <polygon id="Fill-1686" points="18.9451364 26.7985217 20.4465 26.7985217 20.4465 16.443416 18.9451364 16.443416"></polygon>
                <path d="M10.0640909,26.7981981 L5.03181818,16.1800895 L0,26.7981981 L1.625,26.7981981 L2.85909091,24.1450576 L7.205,24.1450576 L8.43909091,26.7981981 L10.0640909,26.7981981 Z M6.715,22.8332784 L3.34909091,22.8332784 L5.03181818,19.2104012 L6.715,22.8332784 Z" id="Fill-1687"></path>
                <path d="M81.8768636,15.7437542 C81.9441364,14.739351 83.7727727,14.0954791 85.2955,13.7326367 C87.3836818,13.2348262 90.1436818,12.9602678 93.0664091,12.9602678 L93.2250455,12.96073 C98.8014091,12.96073 104.5705,14.0058085 104.5705,15.7548475 L104.570955,15.9614596 L102.4755,15.4229738 L102.4755,15.2972501 C102.4755,14.5160989 98.6759545,13.6457394 93.2241364,13.6457394 C87.7714091,13.6457394 83.9718636,14.5160989 83.9718636,15.2972501 L83.9718636,15.4229738 L81.8623182,15.9651574 L81.8768636,15.7437542 Z" id="Fill-1688"></path>
                <polygon id="Fill-1690" points="104.187455 26.9122739 93.2165455 0 82.2451818 26.9122739 83.9247273 26.9122739 93.2165455 5.70933648 93.2165455 5.7097987 102.508364 26.9122739"></polygon>
                <path d="M93.2241364,18.5528938 C87.8495909,18.5528938 83.3000455,17.6871565 82.1614091,16.4474835 C81.9564091,16.2246937 81.8609545,15.9894239 81.8768636,15.7481453 L81.8845909,15.6312037 L83.9714091,15.095029 L83.9718636,15.3021034 C83.9718636,16.0832545 87.7718636,16.9540762 93.2245909,16.9540762 C98.6764091,16.9540762 102.4755,16.0832545 102.4755,15.3021034 L102.4755,15.095029 L104.570955,15.6335148 L104.570955,15.7587763 C104.570955,16.7668773 102.722318,17.4130603 101.171864,17.7782138 C99.0477727,18.2778731 96.2255,18.5528938 93.2245909,18.5528938 L93.2241364,18.5528938 Z" id="Fill-1691"></path>
            </g>
        </g>
    </g>
</svg>