<?xml version="1.0" encoding="UTF-8" standalone="no"?>
<svg width="153px" height="22px" viewBox="0 0 153 22" version="1.1" xmlns="http://www.w3.org/2000/svg" xmlns:xlink="http://www.w3.org/1999/xlink">
    <!-- Generator: Sketch 46.1 (44463) - http://www.bohemiancoding.com/sketch -->
    <title>cathaydragon-en</title>
    <desc>Created with Sketch.</desc>
    <defs></defs>
    <g id="icons" stroke="none" stroke-width="1" fill="none" fill-rule="evenodd">
        <g id="cathaydragon" fill="#4C4C4C">
            <g id="cathaydragon-en">
                <path d="M28.5070772,19.9211123 C26.3603001,19.9211123 24.8800132,18.5038874 24.8800132,15.9126819 C24.8800132,13.3265743 26.3191409,11.6355178 28.5857852,11.6355178 C30.9369141,11.6355178 31.7824829,13.4802406 31.7824829,13.4802406 L31.838806,13.529035 L31.838806,11.3514902 C31.838806,11.3514902 30.429284,10.6552585 28.4247588,10.6552585 C24.8034715,10.6552585 22.5317726,12.9063592 22.5317726,15.9265192 C22.5317726,18.3589606 24.4077655,21.0426571 28.2774522,21.0426571 C29.7375206,21.0426571 31.4402117,20.456395 31.4402117,20.456395 L32.2222364,17.7603178 L32.1355855,17.8171233 C32.1355855,17.8171233 30.8668713,19.9211123 28.5070772,19.9211123 L28.5070772,19.9211123 Z M73.9107274,19.5161909 L69.5204129,10.3093274 L65.1604263,19.5161909 C64.5076559,20.7746516 63.788453,20.8023261 63.788453,20.8023261 L63.7198544,20.8722406 L66.7035352,20.8722406 L66.638547,20.8023261 C66.638547,20.8023261 65.8038096,20.6355509 66.3309361,19.5161909 L67.113683,17.8914074 L70.8533933,17.8914074 L71.6108669,19.5161909 C72.1430482,20.6355509 71.3075886,20.8023261 71.3075886,20.8023261 L71.2411562,20.8722406 L75.3498551,20.8722406 L75.2819786,20.8023261 C75.2819786,20.8023261 74.5230607,20.7972281 73.9107274,19.5161909 L73.9107274,19.5161909 Z M67.5231087,17.0371399 L69.0647734,13.7708226 L70.4699629,17.0371399 L67.5231087,17.0371399 Z" id="Fill-4"></path>
                <path d="M125.799984,16.8824541 L125.863528,16.9501837 C125.863528,16.9501837 126.53074,17.0499575 126.53074,18.2341341 L126.53074,19.4663768 C126.083044,19.6586417 125.568915,19.7875465 124.984021,19.7875465 C122.840132,19.7875465 121.36851,18.3732348 121.36851,15.7922251 C121.36851,13.2090306 122.802583,11.5194306 125.064173,11.5194306 C127.408803,11.5194306 128.250762,13.3648817 128.250762,13.3648817 L128.30564,13.4085782 L128.30564,11.2375879 C128.30564,11.2375879 126.903339,10.5457258 124.899536,10.5457258 C121.291247,10.5457258 119.024602,12.7880872 119.024602,15.8038775 C119.024602,18.2297644 120.895541,20.9061782 124.754396,20.9061782 C125.35301,20.9061782 125.986284,20.807861 126.53074,20.6920651 C127.314209,20.5245617 127.909212,20.3184596 127.909212,20.3184596 L128.624805,20.0744872 L128.624805,19.7380237 L128.624805,18.2341341 C128.624805,17.0499575 129.289129,16.9501837 129.289129,16.9501837 L129.358449,16.8824541 L125.799984,16.8824541 Z" id="Fill-6"></path>
                <path d="M141.119582,15.7550102 C141.119582,16.4111868 141.021378,17.050613 140.809805,17.6623647 C140.570071,18.3185412 140.189529,18.9295647 139.709338,19.4277054 C138.382134,20.7939509 136.731434,21.0066074 135.561646,21.0066074 C132.032786,21.0066074 130.143074,18.6324281 130.143074,15.8118157 C130.143074,12.3685274 132.822754,10.4334985 135.800658,10.4334985 C139.0609,10.4334985 141.119582,12.7668943 141.119582,15.7550102 M138.299094,18.7169081 C138.918648,17.9048806 139.102059,16.8670874 139.102059,15.8533274 C139.102059,13.5497909 137.931549,11.5273688 135.588363,11.5273688 C133.600446,11.5273688 132.159874,13.1099123 132.159874,15.5845937 C132.159874,17.6354185 133.331828,19.9396833 135.742891,19.9396833 C136.873686,19.9396833 137.76258,19.4124116 138.299094,18.7169081" id="Fill-8"></path>
                <path d="M150.043113,10.8118378 L150.109545,10.8817523 C150.109545,10.8817523 150.779646,10.9793412 150.779646,12.1751702 L150.779646,12.2225081 L150.774591,12.3230102 L150.774591,17.7712419 L144.872218,10.8111095 L142.13116,10.8118378 L142.19687,10.8795674 C142.19687,10.8795674 142.861916,10.9771564 142.861916,12.1642461 L142.861916,19.5089081 C142.861916,20.6952695 142.19687,20.7892171 142.19687,20.7892171 L142.13116,20.8635012 L144.778346,20.8635012 L144.708303,20.7892171 C144.708303,20.7892171 144.045423,20.6916281 144.045423,19.5089081 L144.045423,12.7810957 L151.015048,20.9450681 L151.953044,20.9450681 L151.953044,19.6596612 L151.953044,19.5875619 L151.953044,12.1751702 C151.953044,10.9793412 152.623867,10.8817523 152.623867,10.8817523 L152.693187,10.8118378 L150.043113,10.8118378 Z" id="Fill-10"></path>
                <path d="M95.335462,11.4353148 C94.1931137,10.8687161 92.809587,10.8242913 92.2737953,10.8242913 L91.1437226,10.8242913 L91.146611,10.823563 L87.5874235,10.823563 L87.6538559,10.8905644 C87.6538559,10.8905644 88.3181798,10.9881534 88.3181798,12.175243 L88.3181798,19.5206334 C88.3181798,20.7062665 87.6538559,20.8009423 87.6538559,20.8009423 L87.5874235,20.8744982 L91.146611,20.8744982 L91.1430005,20.8715851 L91.7380037,20.8715851 C93.0637631,20.8715851 94.8119459,20.8286168 96.2402423,19.503883 C97.0554832,18.7370086 97.7768523,17.4421341 97.7768523,15.7204899 C97.7768523,13.9267465 96.9717206,12.2458858 95.335462,11.4353148 M92.9373971,19.6473534 C92.4839239,19.7595079 91.9488543,19.804661 91.4831055,19.804661 L90.4295744,19.804661 C90.4201872,19.7165396 90.4136884,19.6255051 90.4136884,19.5206334 L90.4136884,12.175243 C90.4136884,12.0718279 90.4201872,11.9800651 90.4295744,11.8919437 L91.4130626,11.8919437 C92.4434868,11.8919437 94.5469384,11.9363686 95.4062269,14.012683 C95.6452391,14.5800099 95.7304459,15.1939465 95.7304459,15.807883 C95.7304459,17.4566996 95.010521,19.1361037 92.9373971,19.6473534" id="Fill-12"></path>
                <path d="M43.9115931,10.8217423 C42.7345845,10.8217423 42.5699477,10.7066748 42.5699477,10.7066748 L42.564893,12.7101617 L42.6327696,12.6584541 C42.6327696,12.6584541 43.1685613,11.7903492 44.3434037,11.7903492 L46.0179331,11.7903492 L46.0179331,19.5173561 C46.0179331,20.7044458 45.3550534,20.807861 45.3550534,20.807861 L45.2850106,20.8748623 L48.8521411,20.8748623 L48.7871529,20.807861 C48.7871529,20.807861 48.1170522,20.7044458 48.1170522,19.5173561 L48.1257173,11.7903492 L49.761976,11.7903492 C50.9382625,11.7903492 51.5029379,12.6584541 51.5029379,12.6584541 L51.5729807,12.7101617 L51.5773132,10.7066748 C51.5773132,10.7066748 51.4105102,10.8217423 50.2335015,10.8217423 L43.9115931,10.8217423 Z" id="Fill-14"></path>
                <path d="M62.6396781,19.5172833 C62.6396781,18.3331068 62.6353456,13.3422323 62.6353456,12.158784 C62.6353456,10.9709661 63.3011137,10.8843012 63.3011137,10.8843012 L63.3697123,10.8180281 L59.8018597,10.8180281 L59.866848,10.8843012 C59.866848,10.8843012 60.5355044,10.9709661 60.5355044,12.158784 C60.5355044,13.3422323 60.540559,15.0405716 60.540559,15.0405716 L55.631061,15.0405716 L55.631061,12.158784 C55.631061,10.9709661 56.3011616,10.8893992 56.3011616,10.8893992 L56.3647057,10.8216695 L52.8011856,10.8216695 L52.8697843,10.8893992 C52.8697843,10.8893992 53.5355524,10.9709661 53.5355524,12.158784 L53.5355524,19.5172833 C53.5355524,20.704373 52.8697843,20.8077881 52.8697843,20.8077881 L52.8011856,20.8747895 L56.3647057,20.8747895 L56.3011616,20.8077881 C56.3011616,20.8077881 55.631061,20.704373 55.631061,19.5172833 L55.631061,16.0266571 L60.540559,16.0266571 L60.540559,19.5172833 C60.540559,20.704373 59.8740689,20.8077881 59.8740689,20.8077881 L59.8061923,20.8747895 L63.3762112,20.8747895 L63.3068904,20.8077881 C63.3068904,20.8077881 62.6396781,20.704373 62.6396781,19.5172833" id="Fill-16"></path>
                <path d="M39.8763309,20.8051663 L39.8120648,20.8743526 L43.92293,20.8743526 L43.8514429,20.8051663 C43.8514429,20.8051663 43.0925251,20.8000684 42.482358,19.5183029 L38.0913215,10.3114394 L33.7306127,19.5183029 C33.0785644,20.7767636 32.3571953,20.8051663 32.3571953,20.8051663 L32.2922071,20.8743526 L35.2773321,20.8743526 L35.205845,20.8051663 C35.205845,20.8051663 34.3732739,20.6376629 34.9025667,19.5183029 L35.6838694,17.894976 L39.4228576,17.894976 L40.1824976,19.5183029 C40.708902,20.6376629 39.8763309,20.8051663 39.8763309,20.8051663 L39.8763309,20.8051663 Z M36.0940172,17.0399801 L37.6349598,13.7729346 L39.037983,17.0399801 L36.0940172,17.0399801 Z" id="Fill-18"></path>
                <path d="M80.9531384,10.8217423 L81.0224592,10.889472 C81.0224592,10.889472 81.9041325,11.1385423 81.2398086,12.1836182 C80.9127013,12.6890417 79.9328235,14.107723 79.0374305,15.4776099 C78.1384269,14.107723 77.1715468,12.6803023 76.8466058,12.1734223 C76.1822819,11.1283465 77.0668436,10.889472 77.0668436,10.889472 L77.1339981,10.8217423 L73.0231329,10.8217423 L73.0895653,10.889472 C73.0895653,10.889472 73.6860126,10.9877892 74.4658711,12.1734223 C74.7922563,12.6752044 76.4617312,15.0275354 77.3607347,16.3981506 L77.3607347,19.5173561 C77.3607347,20.7044458 76.6928004,20.807861 76.6928004,20.807861 L76.6270901,20.8748623 L80.1927764,20.8748623 L80.1241777,20.807861 C80.1241777,20.807861 79.461298,20.7044458 79.461298,19.5173561 C79.461298,19.0155741 79.4540771,17.7673092 79.4540771,16.3981506 C80.3530806,15.0275354 82.0247217,12.6839437 82.3532732,12.1836182 C83.1280771,10.9979851 84.0155272,10.889472 84.0155272,10.889472 L84.0841258,10.8217423 L80.9531384,10.8217423 Z" id="Fill-20"></path>
                <path d="M101.492156,19.5131321 L101.492156,17.297717 L101.492156,16.3320232 L101.492156,12.1670135 L101.492156,10.8175183 L98.6695015,10.8175183 L98.7388222,10.885248 C98.7388222,10.885248 99.4009798,10.9813804 99.4009798,12.1670135 L99.4009798,19.5131321 C99.4009798,20.698037 98.7388222,20.7927128 98.7388222,20.7927128 L98.6695015,20.8662687 L102.226523,20.8662687 L102.161534,20.7927128 C102.161534,20.7927128 101.492156,20.698037 101.492156,19.5131321" id="Fill-22"></path>
                <path d="M104.347521,10.9468601 C103.852167,10.8361622 103.300489,10.8201401 102.578398,10.8201401 L101.49165,10.8201401 L101.49165,10.822325 L98.6697181,10.822325 L98.7390388,10.8900546 C98.7390388,10.8900546 99.4011965,10.986187 99.4011965,12.1725484 L99.4011965,19.518667 C99.4011965,20.7035719 98.7390388,20.7967912 98.7390388,20.7967912 L98.6697181,20.870347 L102.226017,20.870347 L102.161029,20.7967912 C102.161029,20.7967912 101.492373,20.7035719 101.492373,19.518667 L101.492373,17.3032519 L101.492373,16.6689236 L103.288935,16.6703801 L103.417468,16.659456 C103.417468,16.659456 104.417564,16.6907719 105.314401,16.194816 C106.293557,15.6544353 106.893615,14.6617953 106.893615,13.7033843 C106.893615,12.8928132 106.565063,11.4537401 104.347521,10.9468601 M103.710637,15.6231194 C103.430465,15.7520243 103.253553,15.8292215 102.111927,15.8292215 L101.492373,15.8270367 L101.492373,12.1834726 L101.492373,11.780736 L101.963898,11.780736 C102.536516,11.780736 103.130075,11.780736 103.486788,11.8899774 C104.422619,12.1521567 104.899199,12.7223967 104.899199,13.7834946 C104.899199,14.4345732 104.565593,15.2269374 103.710637,15.6231194" id="Fill-24"></path>
                <path d="M102.959951,16.5533462 L104.817891,19.9944497 C105.145721,20.6265931 105.553702,20.8705655 106.080829,20.8705655 L107.826123,20.8705655 L107.768356,20.7991945 C107.299719,20.6193103 107.191405,20.4000993 106.641894,19.3754152 L104.996248,16.2700469" id="Fill-26"></path>
                <path d="M118.20835,19.5235465 L113.828867,10.3407161 L109.479712,19.5235465 C108.826942,20.7783658 108.113516,20.805312 108.113516,20.805312 L108.044917,20.8744982 L111.021377,20.8744982 L110.954944,20.805312 C110.954944,20.805312 110.118041,20.6421782 110.648778,19.5235465 L111.432247,17.8980348 L115.156071,17.8980348 L115.917155,19.5235465 C116.444282,20.6421782 115.612433,20.805312 115.612433,20.805312 L115.543834,20.8744982 L119.639535,20.8744982 L119.575991,20.805312 C119.575991,20.805312 118.817073,20.7965727 118.20835,19.5235465 L118.20835,19.5235465 Z M111.840228,17.0495934 L113.376116,13.7905589 L114.774085,17.0495934 L111.840228,17.0495934 Z" id="Fill-28"></path>
                <path d="M16.6761185,14.242891 C16.5923559,13.9319172 15.6897419,14.06592 14.9474322,13.9974621 C14.2722769,13.9348303 13.4064895,13.81248 12.365234,13.4483421 C11.3918551,13.107509 10.4480819,12.7171531 9.62706423,12.2685352 L9.25951981,12.072629 C9.19092115,12.030389 9.1374864,11.9998014 9.06960983,11.9582897 L8.92302531,11.877451 L8.77716289,11.7900579 L8.60602728,11.6939255 C8.5302077,11.6473159 8.48327178,11.6109021 8.41250684,11.5584662 L8.28686297,11.481269 L8.15544237,11.4026152 C8.08973208,11.3589186 8.04712869,11.3217766 7.9814184,11.2758952 L7.86299544,11.1994262 L7.72796439,11.101109 L7.64925645,11.0421186 L7.50339403,10.911029 L7.36691879,10.7988745 L7.26004929,10.7151228 C7.1856739,10.6605021 7.13873797,10.6204469 7.06508467,10.5658262 L6.93005362,10.4478455 L6.77263774,10.3225821 L6.66937869,10.2373738 L6.56395338,10.1237628 L6.45419552,10.0283586 L6.28233781,9.86158345 L6.22240425,9.79385379 L6.1689695,9.73122207 L6.11625684,9.67951448 L6.04838027,9.61324138 L5.99350134,9.54259862 L5.94584332,9.47923862 L5.86063656,9.38674759 L5.79853671,9.32120276 L5.76171006,9.27095172 L5.7256055,9.22215724 L5.68300212,9.20977655 L5.68083585,9.2745931 L5.74293569,9.3743669 L5.75232288,9.38820414 L5.77181934,9.42170483 L5.80431344,9.47341241 L5.8902423,9.57172966 L5.91912594,9.60158897 L5.96895024,9.66713379 L6.02310708,9.73777655 L6.04910236,9.77127724 L6.07943019,9.80769103 L6.12853239,9.85794207 L6.21157288,9.93950897 L6.2751169,10.0006841 C6.33071792,10.0669572 6.39065149,10.1332303 6.44047579,10.1958621 L6.55239992,10.2839834 L6.64338341,10.3932248 L6.7343669,10.488629 C6.78996792,10.56 6.82823876,10.5985986 6.89972579,10.652491 L7.01164992,10.758091 L7.11851942,10.8746152 C7.17845299,10.9518124 7.20517036,11.0231834 7.19650527,11.0253683 L6.9972081,10.9088441 L6.89539324,10.8287338 L6.78707956,10.7362428 L6.69537398,10.6379255 C6.61305558,10.530869 6.58417193,10.5250428 6.48957799,10.4310952 C6.42025723,10.3626372 6.33432838,10.3014621 6.26645181,10.2402869 L6.20724033,10.1754703 L6.13719748,10.1091972 L6.02527335,9.96281379 L5.91695967,9.87469241 L5.87580047,9.83463724 L5.81875527,9.78584276 L5.68083585,9.60523034 L5.60646046,9.52366345 L5.47792822,9.33431172 C5.41366211,9.24983172 5.32195653,9.18938483 5.26057877,9.10490483 C5.19703475,9.01751172 5.15948601,8.91482483 5.09883035,8.82379034 L5.00495849,8.71819034 L4.96379929,8.64681931 L4.86198443,8.50334897 C4.82010314,8.43998897 4.7912195,8.37298759 4.74861612,8.30671448 L4.70168019,8.22004966 L4.62441643,8.10352552 L4.56087241,7.99501241 L4.5117702,7.91053241 L4.45689127,7.82896552 L4.36662987,7.68549517 L4.29297657,7.63160276 L4.28575566,7.68039724 L4.32258231,7.75613793 L4.40056816,7.89742345 L4.46700055,8.01467586 L4.52693412,8.11226483 L4.59120024,8.24845241 L4.64968962,8.34968276 C4.68290582,8.41595586 4.7255092,8.46839172 4.75944748,8.52228414 L4.82876824,8.65191724 C4.87425998,8.72183172 4.92841682,8.78810483 4.97463066,8.85874759 L5.05694906,9.00877241 L5.14793255,9.1267531 L5.23097303,9.27969103 L5.3154577,9.39403034 C5.35878318,9.46103172 5.39849819,9.52366345 5.44471203,9.58702345 L5.52847461,9.68534069 L5.6274011,9.82953931 L5.71621832,9.93441103 L5.87074583,10.1747421 C5.79709253,10.1849379 5.65628475,10.0232607 5.59635118,9.96427034 L5.46565267,9.84119172 L5.33639835,9.64164414 L5.27646478,9.57974069 L5.17537201,9.45520552 L5.12843608,9.40932414 C5.07139088,9.33431172 5.02228868,9.25492966 4.96596557,9.17700414 L4.88870181,9.08524138 L4.84393215,9.00731586 L4.76955676,8.90244414 L4.72478711,8.82379034 L4.62369434,8.68905931 L4.56737123,8.56233931 C4.50527138,8.46475034 4.43522854,8.36570483 4.37385079,8.26884414 L4.33557995,8.19019034 C4.28575566,8.11080828 4.23809764,8.02414345 4.18827335,7.94476138 L4.14350369,7.8537269 L4.06262948,7.75468138 L4.02435865,7.66728828 L3.95864835,7.54639448 L3.92398797,7.47502345 C3.8640544,7.38034759 3.81423011,7.27911724 3.76512791,7.17497379 L3.6755886,7.01402483 L3.59182602,6.83122759 L3.54922264,6.71033379 L3.44668569,6.52753655 L3.39830558,6.40445793 L3.34920338,6.37241379 L3.34053829,6.43723034 C3.36075684,6.50423172 3.3968614,6.58070069 3.41419159,6.61857103 C3.44812987,6.69431172 3.46473797,6.77296552 3.49939835,6.84943448 L3.56438656,6.97396966 C3.59832484,7.04606897 3.63009686,7.1203531 3.66259096,7.18953931 L3.71819198,7.30752 L3.75574072,7.37160828 L3.80556502,7.51944828 L3.88788341,7.65636414 C4.00269591,7.9017931 4.11895259,8.13702621 4.25687201,8.35478069 L4.35435432,8.55141517 L4.48938538,8.72474483 L4.56015031,8.90025931 C4.60491997,8.98328276 4.66413145,9.05246897 4.71323365,9.12966621 L4.74428357,9.19812414 L4.80566132,9.28624552 L4.87064953,9.41005241 L4.9710202,9.52512 L5.07066879,9.68461241 L5.16381855,9.78074483 L5.39416564,10.0844359 C5.45915385,10.166731 5.57324426,10.2883531 5.62667901,10.3968662 L5.68877885,10.525771 L5.48948168,10.3640938 C5.42882602,10.3058317 5.37683546,10.2257214 5.3241228,10.15872 L5.16165228,9.99121655 L5.12121517,9.93586759 L5.01795613,9.75379862 L4.95802256,9.6911669 L4.8728158,9.55643586 C4.82299151,9.48870621 4.76016958,9.42825931 4.71106737,9.35980138 C4.65691053,9.28624552 4.61936179,9.19885241 4.56448286,9.12529655 L4.47638774,9.01751172 L4.44967036,8.96434759 L4.38757052,8.86675862 L4.34568923,8.77863724 C4.28936612,8.68905931 4.23232091,8.59365517 4.17527571,8.50407724 L4.10956541,8.38027034 C4.06696203,8.31326897 4.01352728,8.25427862 3.9709239,8.18654897 C3.92037752,8.10789517 3.89293805,8.01176276 3.84311376,7.93238069 L3.73768844,7.77871448 L3.65031541,7.59591724 L3.55860983,7.44225103 L3.48495653,7.26892138 L3.43296596,7.17497379 L3.39325094,7.05408 C3.34342665,6.94483862 3.26905126,6.84069517 3.21778278,6.73072552 C3.18095613,6.6528 3.14918412,6.5712331 3.11885629,6.48966621 L3.07553082,6.35857655 C3.03003907,6.25807448 2.97443805,6.15174621 2.9296684,6.05270069 L2.87262319,5.89175172 L2.86179182,5.84659862 L2.79535943,5.70676966 L2.74409096,5.54363586 C2.67404811,5.36593655 2.61122618,5.16711724 2.54479379,4.98286345 L2.52168687,4.87070897 C2.48774858,4.77676138 2.45308821,4.68208552 2.41842783,4.58740966 L2.36427099,4.60488828 L2.39748719,4.73743448 L2.41337319,4.81463172 L2.4451452,4.91003586 L2.48341604,5.07608276 C2.51013341,5.15255172 2.53757288,5.22610759 2.56212398,5.30476138 L2.58595299,5.42201379 L2.62422382,5.52907034 C2.66321675,5.62593103 2.7000434,5.71842207 2.73470377,5.81309793 L2.77586297,5.97696 L2.82352099,6.06726621 L2.84951627,6.14592 L2.92316958,6.33163034 L2.99321242,6.48820966 L3.01198679,6.56322207 C3.07047618,6.72489931 3.1340202,6.89458759 3.20261887,7.04606897 L3.24233388,7.16332138 L3.29071399,7.26163862 L3.31165464,7.32281379 L3.39108467,7.45099034 C3.44957406,7.57625379 3.50300881,7.69569103 3.57666211,7.80347586 C3.64526077,7.90252138 3.6755886,8.03433931 3.72757917,8.15232 L3.81711847,8.30598621 L3.85538931,8.3875531 L3.94709489,8.55796966 L4.003418,8.67595034 L4.0366342,8.81213793 L3.94853907,8.7618869 L3.85250094,8.62934069 L3.79473365,8.51063172 C3.75862909,8.43270621 3.69725134,8.3664331 3.65175959,8.29506207 L3.58893766,8.16178759 C3.55066682,8.07876414 3.50734135,7.99501241 3.46762634,7.90980414 L3.40624858,7.80857379 L3.35425802,7.70734345 C3.30804418,7.63524414 3.2574978,7.55367724 3.22067115,7.47575172 L3.15351667,7.30242207 L3.11885629,7.25071448 L3.076975,7.15603862 L3.00548797,7.02494897 C2.96505086,6.93609931 2.94049976,6.84288 2.89934057,6.75403034 L2.82713145,6.63677793 C2.79752571,6.57341793 2.79463734,6.49476414 2.76575369,6.42776276 C2.68848994,6.25297655 2.60039481,6.07309241 2.53396242,5.8895669 L2.5108555,5.79197793 C2.48269395,5.71259586 2.44442311,5.63831172 2.41626156,5.56038621 L2.38665582,5.45551448 L2.32311179,5.29238069 L2.30866997,5.23776 L2.24801431,5.07462621 L2.20613302,4.98941793 L2.17436101,4.82045793 C2.14836572,4.74544552 2.11659371,4.66533517 2.08987634,4.59177931 L2.05593805,4.46505931 L2.0025033,4.3113931 L1.96784292,4.15190069 L1.92523954,4.0310069 C1.89924426,3.95963586 1.88913498,3.88243862 1.86241761,3.81616552 L1.84941997,3.77902345 L1.81259332,3.74770759 L1.79309686,3.7986869 L1.83136769,3.94215724 L1.86891643,4.0790731 L1.88119198,4.16719448 L1.91801863,4.29100138 L1.93173836,4.40461241 C1.95845574,4.49491862 1.98806148,4.59614897 2.01838931,4.68208552 L2.04582877,4.81608828 L2.09493097,4.95300414 L2.12814717,5.06370207 L2.17797146,5.18459586 L2.21263184,5.34772966 C2.24295967,5.43148138 2.28195259,5.51232 2.31155833,5.59534345 L2.33394316,5.68637793 C2.35849426,5.75774897 2.37654654,5.83421793 2.40181973,5.90486069 C2.43864638,6.00609103 2.4863044,6.10440828 2.52168687,6.20491034 C2.55779143,6.30395586 2.56212398,6.42193655 2.60328318,6.51442759 L2.68848994,6.63168 L2.7079864,6.72635586 L2.75058978,6.83705379 L2.77658506,6.93245793 L2.83146399,7.04315586 L2.9051173,7.21648552 L2.98382524,7.33737931 L3.03725998,7.49031724 C3.07047618,7.56532966 3.11019119,7.63742897 3.13835275,7.71535448 C3.16434803,7.78599724 3.17301313,7.86173793 3.20695142,7.92436966 L3.31598719,8.10352552 L3.37880912,8.24116966 L3.45029615,8.34895448 L3.52322736,8.49242483 L3.56583074,8.59365517 L3.64959332,8.72911448 L3.72685708,8.87768276 L3.77884764,8.98910897 L3.85322303,9.08669793 L3.89004969,9.24473379 L3.77523719,9.16171034 C3.71963616,9.09325241 3.6921967,9.00221793 3.64165031,8.92939034 C3.58821557,8.85146483 3.5528331,8.80776828 3.5116739,8.71819034 L3.41491368,8.52738207 L3.32609646,8.39629241 L3.28349308,8.26957241 L3.1751794,8.11590621 C3.14340739,8.0496331 3.12968766,7.98117517 3.09719355,7.92 L3.04592508,7.82532414 L2.99971124,7.70807172 C2.96288459,7.62796138 2.90583939,7.55950345 2.86901274,7.47866483 C2.8307419,7.39709793 2.80907917,7.30824828 2.77008624,7.22522483 L2.6913783,7.09704828 L2.62061336,6.91497931 L2.56212398,6.80719448 L2.50507877,6.64333241 C2.45092193,6.52171034 2.39459882,6.39426207 2.34044198,6.27191172 L2.29422814,6.12844138 L2.23140621,6.00390621 C2.18374819,5.89612138 2.16714009,5.77012966 2.11948208,5.66234483 L2.04294041,5.49556966 C2.00900212,5.40235034 1.99600448,5.30694621 1.96278829,5.21154207 C1.91079772,5.06734345 1.86963852,4.91586207 1.81764796,4.77166345 L1.78515385,4.64130207 L1.73821792,4.51385379 L1.71150055,4.38713379 C1.67322972,4.26478345 1.63423679,4.1424331 1.59524387,4.01862621 L1.57574741,3.89846069 L1.55047421,3.83291586 L1.53169984,3.75134897 C1.50353829,3.66177103 1.47898719,3.55762759 1.45082563,3.46877793 L1.43132917,3.36681931 C1.39161415,3.23937103 1.37211769,3.08279172 1.32157131,2.96408276 L1.27535747,2.92257103 L1.26019355,2.9750069 L1.2977423,3.13231448 L1.30351903,3.21024 L1.31579458,3.28161103 C1.33890149,3.35735172 1.36634096,3.44765793 1.38872579,3.52267034 L1.39955715,3.6566731 C1.43132917,3.7775669 1.45588027,3.92249379 1.49920574,4.0310069 C1.53892075,4.13078069 1.54686376,4.24948966 1.57502531,4.35727448 L1.59307759,4.49710345 L1.63856934,4.61071448 L1.6580658,4.69228138 C1.68117272,4.76947862 1.699225,4.84594759 1.72666447,4.9238731 L1.79381895,5.08045241 L1.80537241,5.15255172 L1.84292115,5.31204414 C1.88046989,5.41691586 1.91657445,5.53198345 1.95412319,5.63831172 L2.0025033,5.81018483 C2.0848217,6.03886345 2.16930637,6.26608552 2.25162476,6.49185103 L2.29206187,6.64187586 L2.36138263,6.7824331 L2.41914992,6.96523034 C2.4451452,7.03805793 2.47908349,7.09486345 2.50652296,7.17060414 L2.54912634,7.28130207 L2.59750645,7.35995586 L2.64372028,7.50706759 L2.72964914,7.63014621 L2.77586297,7.76487724 C2.80691289,7.83406345 2.84662791,7.89742345 2.87623365,7.97025103 L2.90800566,8.05837241 L2.96432877,8.15887448 L2.96649505,8.16324414 L2.97227178,8.18145103 L2.98454733,8.22660414 L3.02281816,8.29506207 L3.05675645,8.33584552 L3.07336454,8.35696552 L3.13113184,8.52301241 L3.22283742,8.66721103 L3.22789206,8.81068138 C3.1260772,8.81068138 3.11885629,8.66648276 3.08564009,8.59147034 L2.98599151,8.42760828 L2.96288459,8.37080276 L2.94049976,8.31326897 L2.91811494,8.27102897 L2.87117901,8.19820138 L2.86973483,8.19456 L2.77730715,7.99865379 L2.72603868,7.92655448 L2.6668272,7.79328 L2.59822854,7.66874483 L2.55057052,7.50269793 L2.5029125,7.42040276 L2.42853711,7.24197517 L2.37726863,7.16040828 L2.31733506,7.01329655 C2.26390031,6.91643586 2.20613302,6.80937931 2.16136336,6.70669241 L2.1014298,6.52680828 L2.02488813,6.37605517 L1.99239403,6.2755531 L1.92523954,6.10295172 L1.89057917,5.94345931 L1.83425605,5.81236966 L1.76998994,5.62010483 L1.70644591,5.47008 L1.67034135,5.34991448 L1.62846006,5.25451034 L1.59452178,5.10739862 L1.53747657,4.94863448 L1.51581384,4.79205517 C1.46021281,4.62600828 1.40822225,4.44976552 1.35623168,4.28371862 C1.33240267,4.20652138 1.32157131,4.13078069 1.29990857,4.05504 L1.28402256,3.95745103 L1.23347618,3.81106759 L1.21397972,3.70983724 L1.17498679,3.60569379 C1.14321478,3.50592 1.12588459,3.39959172 1.09700094,3.30273103 L1.0760603,3.17236966 C1.03923365,3.05147586 1.02984646,2.9116469 0.994463994,2.78419862 L0.972079167,2.67714207 C0.910701415,2.44045241 0.88326195,2.17463172 0.814663286,1.94740966 L0.806720283,1.80102621 L0.763394811,1.65464276 L0.751119261,1.58909793 L0.701294969,1.52500966 L0.683242689,1.58836966 L0.700572877,1.72819862 L0.71429261,1.82578759 C0.735955346,1.90007172 0.742454167,2.0034869 0.754729717,2.07121655 L0.761228538,2.16880552 L0.800943553,2.28314483 L0.816107469,2.44773517 L0.849323664,2.57882483 L0.863043396,2.68224 L0.899147956,2.7907531 L0.906368868,2.93058207 C0.959803616,3.13814069 0.975689623,3.38575448 1.03634528,3.58457379 L1.0515092,3.67269517 C1.10205558,3.84748138 1.14032642,4.03392 1.19231698,4.20797793 L1.20459253,4.29172966 L1.25008428,4.4803531 L1.26308192,4.56264828 L1.32373758,4.75127172 L1.34034568,4.84303448 L1.36561887,4.9180469 L1.38511533,5.02219034 L1.4125548,5.08409379 L1.43566171,5.19479172 L1.49198483,5.3251531 L1.51798011,5.43293793 L1.59307759,5.63175724 L1.63423679,5.79489103 L1.67611808,5.90267586 L1.69850291,5.98715586 L1.75338184,6.08911448 L1.77432248,6.21874759 L1.82342469,6.3330869 L1.8465316,6.45325241 L1.89130126,6.54137379 L1.92812791,6.64187586 L1.96567665,6.70814897 L2.01477885,6.82831448 L2.05666014,7.02130759 L2.04943923,7.08976552 L1.97650802,7.02640552 L1.89418962,6.88293517 L1.87541525,6.82394483 L1.82559096,6.68702897 L1.78732013,6.60254897 L1.76349112,6.47582897 L1.71222264,6.39062069 L1.68550527,6.30541241 L1.63207052,6.21146483 L1.6089636,6.11241931 L1.56636022,5.98934069 L1.50787083,5.8684469 L1.48909646,5.79998897 L1.45010354,5.7053131 L1.4284408,5.63685517 L1.38294906,5.52907034 L1.36056423,5.43803586 L1.30640739,5.27490207 L1.27969002,5.15473655 L1.22625527,5.01417931 L1.19953789,4.8969269 L1.14032642,4.74617379 L1.11938577,4.62309517 C1.09050212,4.52550621 1.0594522,4.4169931 1.02840228,4.31649103 C0.993741903,4.20433655 0.990853538,4.07761655 0.958359434,3.96546207 C0.935252516,3.88389517 0.907090959,3.80596966 0.882539858,3.72731586 L0.861599214,3.60642207 C0.839936478,3.51757241 0.807442374,3.39959172 0.777836635,3.30637241 L0.753285535,3.15416276 L0.721513522,2.9808331 L0.689019418,2.87668966 L0.674577594,2.74632828 L0.603812657,2.47905103 L0.593703381,2.35233103 L0.55687673,2.22925241 L0.544601179,2.13748966 L0.506330346,1.96780138 L0.495498978,1.85419034 L0.458672327,1.7136331 L0.439897956,1.5446731 L0.400905031,1.42960552 L0.378520204,1.33274483 L0.372743475,1.21767724 L0.354691195,1.08513103 L0.327973821,0.915442759 L0.319308726,0.844071724 L0.257208884,0.728275862 L0.236268239,0.790907586 L0.264429796,0.924910345 L0.272372799,1.03560828 L0.279593711,1.11062069 L0.29114717,1.16815448 L0.302700629,1.23879724 L0.301256447,1.31526621 L0.30919945,1.36551724 L0.320752909,1.42159448 L0.320752909,1.47767172 L0.330140094,1.54030345 L0.358301651,1.69979586 L0.380686478,1.88186483 L0.387185299,1.99329103 L0.424734041,2.14258759 L0.438453774,2.25984 L0.495498978,2.41350621 L0.506330346,2.54678069 L0.526548899,2.6640331 L0.528715173,2.72229517 L0.562653459,2.86285241 L0.571318553,2.92548414 L0.602368475,3.08716138 L0.61175566,3.17236966 L0.652192767,3.31511172 L0.661579953,3.4032331 L0.695518239,3.53359448 L0.708515881,3.63482483 C0.723679796,3.70838069 0.734511164,3.78266483 0.754729717,3.85549241 L0.804554009,3.98002759 L0.827660928,4.09728 L0.869542217,4.19486897 L0.878929403,4.28663172 L0.908535142,4.39077517 L0.917922327,4.47161379 L0.94969434,4.55973517 L0.966302437,4.67407448 L1.00962791,4.80152276 L1.0269581,4.92168828 C1.0515092,5.00980966 1.08039285,5.10958345 1.10999858,5.19187862 L1.13743805,5.33170759 L1.17570888,5.41400276 L1.18509607,5.50867862 L1.22697736,5.68710621 L1.30351903,5.85388138 L1.34540031,6.03959172 L1.4125548,6.19252966 L1.43999426,6.33964138 L1.51220338,6.47947034 L1.56636022,6.6557131 L1.58224623,6.73072552 C1.60318687,6.80719448 1.64434607,6.86982621 1.67034135,6.94338207 L1.69272618,7.03732966 L1.7562702,7.19463724 L1.82559096,7.32864 L1.86530597,7.45463172 L1.91801863,7.58572138 L1.93968137,7.66073379 C1.99094984,7.77652966 2.05377178,7.89305379 2.10720653,8.00593655 L2.17797146,8.19965793 L2.25090267,8.34895448 L2.28267469,8.44727172 L2.37943491,8.63298207 L2.39965346,8.74003862 L2.39387673,8.75023448 L2.3144467,8.70071172 C2.24151549,8.62861241 2.22996203,8.49169655 2.17797146,8.39774897 L2.13320181,8.31254069 L2.11153907,8.25427862 L2.01189049,8.07439448 L1.96856502,7.93019586 C1.88480244,7.74885517 1.78876431,7.57406897 1.70861219,7.39127172 C1.67106344,7.30897655 1.66384253,7.21430069 1.63134843,7.12472276 L1.55841722,6.97761103 L1.5187022,6.85671724 L1.44216053,6.70013793 L1.4118327,6.59016828 L1.35117704,6.47947034 C1.32590385,6.42120828 1.32157131,6.36513103 1.30351903,6.29958621 L1.26669237,6.19544276 L1.24430755,6.10368 C1.21975645,6.03595034 1.17931934,5.97477517 1.15332406,5.90486069 L1.11938577,5.75119448 L1.05800802,5.64340966 L1.04356619,5.50358069 L0.996630267,5.37030621 L0.977855896,5.28801103 L0.917200236,5.11905103 L0.894815409,5.03821241 L0.843546934,4.93625379 L0.811774921,4.7702069 C0.790112186,4.69883586 0.763394811,4.64057379 0.742454167,4.57065931 L0.731622799,4.50292966 L0.689019418,4.31066483 L0.676743868,4.22618483 L0.622587028,4.05285517 L0.603090566,3.94579862 C0.574206918,3.85476414 0.548933726,3.74770759 0.521494261,3.65958621 L0.509218711,3.58093241 C0.488278066,3.51174621 0.459394418,3.42726621 0.444230503,3.35662345 L0.426900314,3.23572966 L0.389351572,3.09298759 L0.38790739,3.03326897 L0.374909748,2.93932138 C0.343859827,2.81332966 0.294757626,2.65893517 0.26731816,2.53221517 L0.252876336,2.39529931 L0.23699033,2.29406897 L0.207384591,2.1935669 L0.192220676,2.03407448 L0.189332311,2.02096552 L0.138785928,1.77335172 L0.115679009,1.58545655 L0.101237186,1.45946483 C0.0925720912,1.39392 0.0774081761,1.33711448 0.0701872642,1.2701131 L0.062244261,1.14703448 L0.0283059748,1.08148966 L0.000866509436,1.14484966 C-0.00346603773,1.21257931 0.00953160378,1.30070069 0.0145862421,1.34221241 C0.0239734277,1.42013793 0.0167525157,1.49587862 0.0254176101,1.57453241 L0.0492466195,1.70489379 C0.0593558962,1.77917793 0.0665768082,1.85491862 0.0759639937,1.92628966 L0.0774081761,1.92993103 L0.0896837264,2.02824828 L0.0911279088,2.03771586 L0.0925720912,2.04281379 L0.0932941824,2.04791172 L0.10412555,2.09160828 L0.116401101,2.17317517 C0.139508019,2.25911172 0.134453381,2.35233103 0.157560299,2.43681103 C0.192220676,2.56134621 0.210272956,2.7004469 0.244933333,2.82498207 L0.25504261,2.93495172 L0.284648349,3.05220414 L0.299812264,3.19567448 L0.336638915,3.32603586 L0.364800472,3.4848 L0.408848035,3.65812966 C0.420401494,3.72221793 0.426900314,3.79650207 0.438453774,3.86350345 L0.493332704,4.04848552 L0.499109434,4.11111724 L0.529437264,4.24147862 L0.538102358,4.29974069 C0.559043003,4.38130759 0.583594104,4.48253793 0.608867296,4.56337655 L0.623309119,4.63256276 L0.662302044,4.76219586 L0.678910142,4.85104552 L0.712126336,4.97193931 L0.731622799,5.05860414 L0.770615723,5.16347586 C0.794444733,5.23630345 0.797333097,5.31422897 0.823328381,5.38487172 L0.872430582,5.51232 L0.899870047,5.64923586 C0.922976965,5.71987862 0.94969434,5.79998897 0.975689623,5.87063172 C1.00529536,5.95438345 1.02406973,6.04614621 1.0515092,6.1248 L1.07172775,6.22238897 C1.09483467,6.30177103 1.12227414,6.39062069 1.14754733,6.47073103 L1.17787516,6.59453793 C1.20459253,6.66153931 1.24358546,6.71761655 1.26813656,6.78680276 L1.31579458,6.96013241 C1.34540031,7.03368828 1.3793386,7.10724414 1.40750016,7.18516966 L1.45515818,7.34102069 L1.51725802,7.47138207 L1.55625094,7.58572138 L1.61907288,7.70297379 L1.66600881,7.87047724 C1.69705873,7.95568552 1.73894002,8.0438069 1.77504458,8.12391724 L1.80392822,8.21932138 L1.88624662,8.37298759 L1.93751509,8.52519724 C1.9700092,8.59729655 1.9945603,8.63443862 1.99383821,8.73712552 L1.98084057,8.75678897 L1.92812791,8.72037517 C1.87324898,8.66721103 1.86530597,8.61550345 1.83136769,8.54121931 C1.77937712,8.42760828 1.71294473,8.32200828 1.66167626,8.21131034 L1.59741014,8.03215448 L1.54253121,7.92436966 L1.47970928,7.77143172 C1.44143844,7.70297379 1.4118327,7.62213517 1.38150487,7.54493793 L1.35623168,7.46118621 L1.30785157,7.37597793 L1.25730519,7.22231172 C1.21614599,7.13127724 1.16921006,7.0358731 1.13454969,6.93828414 C1.10205558,6.85089103 1.08689167,6.76568276 1.05439756,6.67464828 L1.01179418,6.56030897 L0.989409355,6.46636138 C0.959803616,6.38479448 0.921532783,6.29958621 0.887594497,6.22166069 L0.851489937,6.10440828 L0.794444733,5.95074207 C0.770615723,5.88665379 0.769171541,5.81018483 0.74462044,5.7417269 C0.692629874,5.5968 0.625475393,5.44386207 0.58142783,5.28946759 L0.564819733,5.18168276 C0.540268632,5.10448552 0.51499544,5.01854897 0.491888522,4.93698207 C0.465171148,4.84521931 0.468059513,4.74981517 0.439897956,4.66023724 C0.404515487,4.54516966 0.364078381,4.42427586 0.327973821,4.3113931 L0.311365723,4.20433655 C0.286814623,4.1154869 0.257208884,4.0128 0.228325236,3.92977655 L0.197997406,3.80596966 L0.137341745,3.82854621 L0.161170755,3.96254897 L0.174168396,4.06305103 L0.225436871,4.23273931 L0.260097248,4.40461241 L0.289702987,4.49637517 L0.32725173,4.67553103 L0.368410928,4.81608828 L0.384296934,4.89984 L0.434843318,5.06370207 L0.447118868,5.15109517 L0.481057154,5.27781517 L0.504164072,5.41181793 C0.527993082,5.48683034 0.555432547,5.56621241 0.579983648,5.63685517 C0.608145204,5.71550897 0.61175566,5.79780414 0.639917217,5.87791448 C0.690463601,6.0192 0.737399528,6.18087724 0.787945912,6.32434759 L0.808164465,6.4386869 L0.85943294,6.62148414 L0.900592138,6.70596414 L0.936696698,6.81374897 L0.978577987,6.90187034 L1.00601745,7.04461241 L1.0515092,7.15312552 L1.08111494,7.27037793 L1.1331055,7.36432552 L1.16198915,7.45900138 L1.2074809,7.56096 L1.24069709,7.67529931 L1.2890772,7.77288828 L1.31507248,7.88649931 L1.39450252,8.04307862 L1.43132917,8.16688552 L1.50064992,8.30452966 L1.57430322,8.48659862 C1.62051706,8.59001379 1.63568097,8.70289655 1.6826169,8.80339862 C1.71727728,8.87841103 1.76276903,8.94905379 1.79598522,9.02260966 L1.83931069,9.14641655 L1.91729654,9.27386483 L1.96495456,9.40713931 L2.05304969,9.57100138 L2.08915425,9.66494897 L2.19169119,9.83827862 L2.23429458,9.95917241 L2.34477453,10.1448828 L2.41048483,10.2890814 C2.45453239,10.3582676 2.48341604,10.404149 2.52529733,10.4740634 L2.61339245,10.6350124 L2.69498876,10.7719283 L2.77080833,10.9146703 L2.85890346,11.0501297 C2.91017193,11.1280552 2.94266604,11.2110786 2.99176824,11.2890041 L3.10513656,11.4521379 C3.20695142,11.5926952 3.35281384,11.8454069 3.41563577,11.9306152 C3.46762634,11.9990731 3.51022972,12.0799117 3.55788774,12.1527393 L3.67992115,12.3158731 L3.77162673,12.4491476 L3.79689992,12.4826483 C5.10099662,14.1554979 6.44191997,15.2632055 7.57704733,15.9892966 L7.57632524,15.9892966 C8.17421675,16.3665434 8.49699151,16.4765131 8.49699151,16.4765131 C8.57353318,16.507829 8.52082052,16.5639062 8.48254969,16.5879393 L1.75121557,20.9291917 L1.699225,21.0245959 L1.80176195,21.0326069 C7.20372618,19.1208828 11.1232372,17.5485352 13.5191358,16.4015007 C15.9482506,15.2391724 16.7649357,14.5735283 16.6761185,14.242891 M2.30722579,7.82313931 L2.26823286,7.74157241 L2.24295967,7.65345103 C2.20035629,7.5580469 2.15269827,7.45317517 2.11009489,7.35922759 L2.0848217,7.19682207 L2.10792862,7.20046345 L2.14475527,7.23614897 L2.16497382,7.27838897 L2.22996203,7.38034759 C2.2653445,7.45681655 2.27473168,7.54348138 2.30939206,7.61776552 L2.39532091,7.76123586 L2.42348247,7.84644414 L2.4292592,7.91490207 L2.41770574,7.95714207 C2.35127335,7.95350069 2.33177689,7.87120552 2.30722579,7.82313931 M2.58811926,9.90163862 L2.5686228,9.91838897 C2.49713577,9.91766069 2.47547303,9.80769103 2.44370102,9.75889655 L2.36860354,9.63144828 L2.31011415,9.54041379 L2.25812358,9.41587862 L2.21046557,9.35980138 C2.17219473,9.30736552 2.13609017,9.25128828 2.11081698,9.18355862 L2.0927647,9.11218759 L2.04655086,8.98546759 L2.04005204,8.90390069 L2.05016132,8.89370483 L2.18591447,9.08669793 L2.28772932,9.23745103 L2.34477453,9.39767172 L2.42203829,9.49890207 L2.49569159,9.6547531 L2.58089835,9.81206069 L2.58811926,9.90163862 M4.09945613,9.59357793 L4.03013538,9.55279448 C3.97381226,9.51128276 3.92832052,9.44500966 3.92687634,9.34742069 L3.93554143,9.33504 C4.00197382,9.33431172 4.07057248,9.4377269 4.09584568,9.4857931 L4.1182305,9.56663172 L4.09945613,9.59357793 M4.55437358,9.61032828 L4.36879615,9.45520552 C4.31247303,9.36926897 4.25614992,9.27386483 4.19549426,9.19084138 C4.14061533,9.11510069 4.07923758,9.06193655 4.06479575,8.93157517 L4.06335157,8.87768276 L4.21282445,9.03134897 L4.27997893,9.12311172 L4.35291014,9.26658207 L4.47783192,9.42024828 L4.54209803,9.51128276 L4.55437358,9.61032828 M6.14297421,10.4988248 C6.07726392,10.5075641 6.00361061,10.4114317 5.97256069,10.3670069 L5.93573404,10.2650483 L6.04476981,10.2956359 C6.09314992,10.3349628 6.13358703,10.3895834 6.15669395,10.483531 L6.14297421,10.4988248" id="Fill-1"></path>
            </g>
        </g>
    </g>
</svg>