<?xml version="1.0" encoding="UTF-8" standalone="no"?>
<svg width="145px" height="21px" viewBox="0 0 145 21" version="1.1" xmlns="http://www.w3.org/2000/svg" xmlns:xlink="http://www.w3.org/1999/xlink">
    <!-- Generator: Sketch 46.1 (44463) - http://www.bohemiancoding.com/sketch -->
    <title>cathaypacific-en</title>
    <desc>Created with Sketch.</desc>
    <defs></defs>
    <g id="icons" stroke="none" stroke-width="1" fill="none" fill-rule="evenodd">
        <g id="cathaypacific" fill="#4C4C4C">
            <g id="cathaypacific-en">
                <path d="M62.6929951,18.969669 C62.6929951,17.7735539 62.6887758,12.7270811 62.6887758,11.5307514 C62.6887758,10.332705 63.3556335,10.2460114 63.3556335,10.2460114 L63.4244078,10.1799182 L59.8527848,10.1799182 L59.9183947,10.2460114 C59.9183947,10.2460114 60.587151,10.332705 60.587151,11.5307514 C60.587151,12.7270811 60.5924251,14.4504397 60.5924251,14.4504397 L55.6788593,14.4504397 L55.6788593,11.5307514 C55.6788593,10.332705 56.3493033,10.2503031 56.3493033,10.2503031 L56.4142803,10.1809911 L52.8456108,10.1809911 L52.9148071,10.2503031 C52.9148071,10.2503031 53.5812428,10.332705 53.5812428,11.5307514 L53.5812428,18.969669 C53.5812428,20.1685738 52.9148071,20.2713616 52.9148071,20.2713616 L52.8456108,20.3391715 L56.4142803,20.3391715 L56.3493033,20.2713616 C56.3493033,20.2713616 55.6788593,20.1685738 55.6788593,18.969669 L55.6788593,15.4465585 L60.5924251,15.4465585 L60.5924251,18.969669 C60.5924251,20.1685738 59.9262004,20.2713616 59.9262004,20.2713616 L59.8570041,20.3391715 L63.4301038,20.3391715 L63.3609076,20.2713616 C63.3609076,20.2713616 62.6929951,20.1685738 62.6929951,18.969669 L62.6929951,18.969669 Z M43.9479871,10.1809911 C42.7697524,10.1809911 42.6047784,10.0661864 42.6047784,10.0661864 L42.5995043,12.0884664 L42.6687005,12.0369652 C42.6687005,12.0369652 43.2060262,11.160372 44.3802526,11.160372 L46.0565737,11.160372 L46.0565737,18.969669 C46.0565737,20.1685738 45.3926696,20.2713616 45.3926696,20.2713616 L45.3234733,20.3391715 L48.8938305,20.3391715 L48.8273768,20.2713616 C48.8273768,20.2713616 48.1584095,20.1685738 48.1584095,18.969669 L48.16727,11.160372 L49.8047737,11.160372 C50.9819536,11.160372 51.5473375,12.0369652 51.5473375,12.0369652 L51.6165337,12.0884664 L51.620753,10.0661864 C51.620753,10.0661864 51.4543023,10.1809911 50.2758566,10.1809911 L43.9479871,10.1809911 Z M67.5814562,16.4613465 L69.124448,13.1650558 L70.530313,16.4613465 L67.5814562,16.4613465 Z M73.9743027,18.9645189 L69.5805525,9.6698418 L65.2163372,18.9645189 C64.5631922,20.2361691 63.8433826,20.2632072 63.8433826,20.2632072 L63.7754521,20.3338068 L66.7605948,20.3338068 L66.6956178,20.2632072 C66.6956178,20.2632072 65.8599888,20.0956138 66.388243,18.9645189 L67.1713419,17.3244206 L70.9149007,17.3244206 L71.6728948,18.9645189 C72.2049464,20.0956138 71.3697394,20.2632072 71.3697394,20.2632072 L71.3018089,20.3338068 L75.4156097,20.3338068 L75.3462025,20.2632072 C75.3462025,20.2632072 74.5877864,20.2578425 73.9743027,18.9645189 L73.9743027,18.9645189 Z M81.0234586,10.1809911 L81.0926548,10.2503031 C81.0926548,10.2503031 81.9755398,10.5020152 81.3105808,11.5552145 C80.9833754,12.066793 80.0015483,13.4983114 79.1053726,14.8811184 C78.2062434,13.4983114 77.237918,12.0586386 76.9132442,11.5470601 C76.2482852,10.4923587 77.1341236,10.2503031 77.1341236,10.2503031 L77.2005773,10.1809911 L73.0867765,10.1809911 L73.1534412,10.2503031 C73.1534412,10.2503031 73.7492039,10.3505158 74.5295603,11.5470601 C74.8567657,12.0528447 76.5271798,14.4261912 77.4267309,15.8115732 L77.4267309,18.969669 C77.4267309,20.1685738 76.7588184,20.2713616 76.7588184,20.2713616 L76.6923647,20.3391715 L80.2622999,20.3391715 L80.1931037,20.2713616 C80.1931037,20.2713616 79.5285667,20.1685738 79.5285667,18.969669 C79.5285667,18.464099 79.5226597,17.1945947 79.5226597,15.8115732 C80.4222108,14.4261912 82.0955784,12.0616429 82.4251043,11.5552145 C83.1993428,10.3597431 84.0881347,10.2503031 84.0881347,10.2503031 L84.1573309,10.1809911 L81.0234586,10.1809911 Z M28.5300946,19.373095 C26.3816358,19.373095 24.8998236,17.9413619 24.8998236,15.3272474 C24.8998236,12.7161371 26.3409197,11.0086581 28.6087842,11.0086581 C30.9618783,11.0086581 31.8088993,12.8704261 31.8088993,12.8704261 L31.8645938,12.9191377 L31.8645938,10.7211098 C31.8645938,10.7211098 30.4551424,10.0202645 28.4476076,10.0202645 C24.8228217,10.0202645 22.5484173,12.2912523 22.5484173,15.3409811 C22.5484173,17.7950127 24.4264201,20.5037607 28.3001437,20.5037607 C29.7619142,20.5037607 31.4658716,19.9140721 31.4658716,19.9140721 L32.2489705,17.1920196 L32.1628971,17.2486709 C32.1628971,17.2486709 30.892682,19.373095 28.5300946,19.373095 L28.5300946,19.373095 Z M36.1239599,16.4613465 L37.6656859,13.1650558 L39.0715509,16.4613465 L36.1239599,16.4613465 Z M42.5170173,18.9645189 L38.1234781,9.6698418 L33.7588409,18.9645189 C33.1061178,20.2361691 32.3837766,20.2632072 32.3837766,20.2632072 L32.3183777,20.3338068 L35.3073177,20.3338068 L35.2355899,20.2632072 C35.2355899,20.2632072 34.4003829,20.0956138 34.9322235,18.9645189 L35.7142675,17.3244206 L39.4561386,17.3244206 L40.2153985,18.9645189 C40.7436527,20.0956138 39.9097115,20.2632072 39.9097115,20.2632072 L39.8445235,20.3338068 L43.9587463,20.3338068 L43.8882842,20.2632072 C43.8882842,20.2632072 43.1290243,20.2578425 42.5170173,18.9645189 L42.5170173,18.9645189 Z" id="Fill-4"></path>
                <path d="M98.0682222,16.4614538 L99.6084714,13.1651631 L101.016024,16.4614538 L98.0682222,16.4614538 Z M104.458115,18.9644116 L100.066264,9.66994909 L95.7031032,18.9644116 C95.0486924,20.2362764 94.3301485,20.2633145 94.3301485,20.2633145 L94.2613742,20.3336995 L97.2460949,20.3336995 L97.1823837,20.2633145 C97.1823837,20.2633145 96.3442232,20.0957211 96.8737432,18.9644116 L97.6610614,17.3243133 L101.399135,17.3243133 L102.159872,18.9644116 C102.689181,20.0957211 101.853552,20.2633145 101.853552,20.2633145 L101.787309,20.3336995 L105.900266,20.3336995 L105.83107,20.2633145 C105.83107,20.2633145 105.072865,20.2577352 104.458115,18.9644116 L104.458115,18.9644116 Z" id="Fill-6"></path>
                <path d="M133.636692,10.245947 L133.703357,10.1798538 L130.133211,10.1798538 L130.199454,10.245947 C130.199454,10.245947 130.867366,10.3478764 130.867366,11.5444207 L130.867366,18.9833383 C130.867366,20.1794534 130.199454,20.2796661 130.199454,20.2796661 L130.133211,20.3500511 L133.703357,20.3500511 L133.636692,20.2796661 C133.636692,20.2796661 132.96878,20.1794534 132.96878,18.9833383 L132.96878,11.5444207 C132.96878,10.3478764 133.636692,10.245947 133.636692,10.245947" id="Fill-8"></path>
                <path d="M111.380397,19.3730735 C109.233204,19.3730735 107.751603,17.9413405 107.751603,15.327226 C107.751603,12.7163303 109.1908,11.0086367 111.462884,11.0086367 C113.811759,11.0086367 114.660679,12.8704047 114.660679,12.8704047 L114.716373,12.9191162 L114.716373,10.7210884 C114.716373,10.7210884 113.306289,10.020243 111.300442,10.020243 C107.674601,10.020243 105.399986,12.2912309 105.399986,15.3409596 C105.399986,17.7949913 107.278199,20.5039538 111.151712,20.5039538 C112.614959,20.5039538 114.31744,19.9140506 114.31744,19.9140506 L115.099484,17.1919982 L115.014676,17.2488641 C115.014676,17.2488641 113.742985,19.3730735 111.380397,19.3730735" id="Fill-10"></path>
                <path d="M121.816941,10.1799396 L121.880863,10.2503246 C121.880863,10.2503246 122.548354,10.3505373 122.548354,11.5470816 L122.548354,18.9832095 C122.548354,20.1795392 121.880863,20.2795374 121.880863,20.2795374 L121.816941,20.3501369 L125.384345,20.3501369 L125.315148,20.2795374 C125.315148,20.2795374 124.650189,20.1795392 124.650189,18.9832095 L124.650189,18.9806345 L124.650189,15.3843494 L126.757299,15.3843494 C127.932792,15.3843494 128.031312,15.9090177 128.031312,15.9090177 L128.100508,15.9798319 L128.100508,13.7959669 L128.031312,13.8663518 C128.031312,13.8663518 127.932792,14.3884451 126.757299,14.3884451 L124.650189,14.3884451 L124.650189,11.1387201 L127.183025,11.1387201 C128.361471,11.1387201 128.850908,11.8260464 128.850908,11.8260464 L128.920104,11.8801226 L128.920104,10.0651349 C128.920104,10.0651349 128.749856,10.1799396 127.57141,10.1799396 L121.816941,10.1799396 Z" id="Fill-12"></path>
                <path d="M119.896007,10.245947 L119.962461,10.1798538 L116.389994,10.1798538 L116.45919,10.245947 C116.45919,10.245947 117.126681,10.3478764 117.126681,11.5444207 L117.126681,18.9833383 C117.126681,20.1794534 116.45919,20.2796661 116.45919,20.2796661 L116.389994,20.3500511 L119.962461,20.3500511 L119.896007,20.2796661 C119.896007,20.2796661 119.225563,20.1794534 119.225563,18.9833383 L119.225563,11.5444207 C119.225563,10.3478764 119.896007,10.245947 119.896007,10.245947" id="Fill-14"></path>
                <path d="M144.328714,17.2487782 C144.328714,17.2487782 143.062507,19.3729877 140.694435,19.3729877 C138.550195,19.3729877 137.063109,17.9412546 137.063109,15.3273547 C137.063109,12.7162444 138.50526,11.0087654 140.77439,11.0087654 C143.128961,11.0087654 143.974716,12.8705334 143.974716,12.8705334 L144.033364,12.9190304 L144.033364,10.7210025 C144.033364,10.7210025 142.618006,10.0175821 140.614479,10.0175821 C136.991592,10.0175821 134.714234,12.291145 134.714234,15.3408738 C134.714234,17.79512 136.592237,20.503868 140.468703,20.503868 C141.928997,20.503868 143.631477,19.9141794 143.631477,19.9141794 L144.416475,17.1919123 L144.328714,17.2487782 Z" id="Fill-16"></path>
                <path d="M90.4862974,11.5443778 L90.4862974,11.1516812 L90.9544269,11.1516812 C91.5290932,11.1516812 92.1248559,11.1516812 92.4813853,11.2714215 C93.4233402,11.5553218 93.8996973,12.2857803 93.8996973,13.435759 C93.8996973,14.3747973 93.3115292,15.7713379 91.6885821,15.7713379 C91.2200307,15.7713379 90.7310158,15.5818564 90.4862974,15.4681246 L90.4862974,11.5443778 Z M92.3858186,16.7455687 C94.5884952,16.7455687 95.9025909,15.0486045 95.9025909,13.4115105 C95.9025909,12.5050896 95.5728539,10.892244 93.3459164,10.3205808 C92.8484629,10.1918278 92.295104,10.183888 91.5691764,10.183888 L87.6503065,10.1800255 L87.7165492,10.2459041 C87.7165492,10.2459041 88.3844617,10.3478335 88.3844617,11.5443778 L88.3844617,18.9832954 C88.3844617,20.1794105 87.7165492,20.2796232 87.7165492,20.2796232 L87.6503065,20.3500082 L91.2177101,20.3500082 L91.1512564,20.2796232 C91.1512564,20.2796232 90.4862974,20.1794105 90.4862974,18.9832954 L90.4862974,16.3910689 C90.7974695,16.5318388 91.4252988,16.7455687 92.3858186,16.7455687 L92.3858186,16.7455687 Z" id="Fill-18"></path>
                <path d="M6.14170018,9.76343695 C6.07614903,9.77214728 6.00258841,9.67612114 5.97118288,9.63150723 C5.96169798,9.6179106 5.92565539,9.5414296 5.93514028,9.52974501 C5.94862991,9.51827286 6.02345518,9.54397897 6.04368962,9.56033741 C6.09237873,9.59964014 6.13221529,9.65402663 6.1551898,9.74771585 C6.15687601,9.75812577 6.14739111,9.76279961 6.14170018,9.76343695 M4.55392906,8.87583247 C4.5090339,8.89240335 4.39858759,8.7666346 4.36823593,8.72053355 C4.31132657,8.63406753 4.25547109,8.53931607 4.19497855,8.45603676 C4.13975539,8.38040555 4.07841975,8.32729375 4.06408702,8.1970636 C4.06240082,8.1817674 4.05333747,8.14267712 4.06282237,8.14331446 C4.12373646,8.14820074 4.1816997,8.25548659 4.21184058,8.2969138 C4.23355045,8.32686885 4.25905427,8.35682391 4.27928871,8.3882661 C4.30858649,8.43394225 4.32123301,8.48939098 4.352217,8.53188042 C4.3899458,8.58435488 4.43652716,8.63321774 4.47699604,8.68569221 C4.4987059,8.71416013 4.52800368,8.73901646 4.54149331,8.77704451 C4.54781657,8.79658966 4.56657558,8.8696715 4.55392906,8.87583247 M4.09907574,8.85819935 C4.0651409,8.85564998 4.05080817,8.83419281 4.02973063,8.81847172 C3.9734536,8.77683206 3.92771533,8.71012364 3.92602913,8.61303526 C3.92518603,8.60262534 3.92897999,8.60007598 3.93509247,8.60007598 C4.00148673,8.59965108 4.06977796,8.70290043 4.09528178,8.75070106 C4.10265892,8.76557236 4.11952095,8.80402531 4.1174132,8.83164345 C4.11635932,8.84970146 4.10919296,8.85777445 4.09907574,8.85819935 M2.58739454,9.16667271 C2.58528679,9.17368347 2.5791743,9.18303115 2.56842475,9.18366849 C2.49676112,9.18218136 2.47505125,9.07298349 2.44322416,9.02369573 C2.41772034,8.98290587 2.39558892,8.9380795 2.36839889,8.8966523 C2.34942911,8.86797192 2.32561149,8.83780442 2.30980333,8.80508754 C2.29062277,8.76281055 2.28198098,8.71862153 2.25753103,8.68123082 C2.24488451,8.66147322 2.22422852,8.644265 2.21031734,8.62578209 C2.17195622,8.57267029 2.1352813,8.51637177 2.11062058,8.44923845 C2.10492964,8.42544436 2.09818483,8.40165028 2.09249389,8.37764374 C2.07773961,8.33706632 2.05961293,8.29372709 2.04591253,8.2506003 C2.03937849,8.22893069 2.03537376,8.18495411 2.03937849,8.16987036 C2.04190779,8.1628596 2.04485865,8.15861066 2.04970648,8.15967289 C2.10492964,8.16838323 2.15804504,8.30349966 2.18523507,8.35236252 C2.21432207,8.40504943 2.26132499,8.44796377 2.28725036,8.5025627 C2.31022488,8.55163801 2.31760202,8.61409749 2.34394895,8.66232301 C2.36460494,8.69907638 2.3991721,8.72881899 2.4215143,8.76387278 C2.4514444,8.80976138 2.47167884,8.86945905 2.49507491,8.92023394 C2.52100029,8.97738224 2.55851831,9.02157126 2.58064973,9.07680754 C2.59013462,9.10060163 2.59435013,9.14117904 2.58739454,9.16667271 M2.3066417,7.0893638 C2.29336285,7.06471993 2.27776547,7.03476487 2.26785903,7.00778407 C2.25668793,6.97719167 2.2552125,6.94872374 2.2423552,6.91983092 C2.19998935,6.82465457 2.15256488,6.71970564 2.10977747,6.62622887 C2.09165079,6.58692613 2.06783317,6.51341939 2.0846952,6.4634943 C2.08722451,6.45627109 2.10155723,6.46158227 2.10766972,6.46753079 C2.12221322,6.48049007 2.13211967,6.48877552 2.14434464,6.50300948 C2.15340798,6.5166061 2.15593729,6.53147741 2.16500063,6.54528648 C2.18586739,6.5777909 2.21305742,6.61029533 2.2294979,6.6466238 C2.26490817,6.72331725 2.27397151,6.80978326 2.30896023,6.88456468 C2.33214552,6.93427733 2.37029587,6.97719167 2.39474582,7.028179 C2.40697079,7.05473491 2.41476948,7.08384018 2.42298972,7.11294545 C2.42889144,7.13440261 2.42762678,7.16414522 2.42889144,7.181141 C2.43015609,7.20663467 2.42720523,7.2229931 2.41729879,7.223418 C2.35111531,7.2198064 2.33172397,7.13780177 2.3066417,7.0893638 M16.6735148,13.5042076 C16.5894154,13.1938222 15.6875075,13.3270266 14.9453673,13.258831 C14.2700429,13.1967965 13.4043883,13.0746393 12.362947,12.7102923 C11.3895862,12.3697394 10.446577,11.9794739 9.62518528,11.5318476 C9.62518528,11.5318476 9.29258169,11.3555164 9.25759298,11.3355464 C9.18930175,11.2936943 9.13576479,11.2635268 9.06831666,11.2212498 C9.02826934,11.1970308 8.96693369,11.1602774 8.92140621,11.1403074 C8.8640753,11.1160884 8.82529262,11.0848587 8.77554963,11.0538414 C8.72496353,11.0226116 8.6558292,10.9892574 8.60482155,10.9576028 C8.52894241,10.9106519 8.48172871,10.8738986 8.41090818,10.8220614 C8.36643457,10.7899819 8.34451393,10.7804218 8.28528604,10.7440933 C8.25029732,10.7226361 8.18558927,10.6875824 8.15397296,10.6663376 C8.08800026,10.6225735 8.04605595,10.5858201 7.98029403,10.5397191 C7.9394036,10.5112512 7.90989504,10.4934056 7.86120592,10.4634505 C7.81357068,10.4337079 7.76867552,10.3958923 7.72673122,10.3650875 C7.70354592,10.3476668 7.66940031,10.3276968 7.64790122,10.3060271 C7.59984442,10.2590763 7.55199841,10.2165869 7.50183386,10.1753721 C7.45483095,10.1407432 7.41162199,10.0978289 7.36567295,10.0634124 C7.33679672,10.0419553 7.28747528,9.99946581 7.25859904,9.97864598 C7.1844061,9.92468439 7.13761396,9.88431942 7.06384257,9.83014538 C7.01599655,9.79466669 6.97616,9.74771585 6.92873554,9.71244962 C6.87519858,9.67229709 6.82672024,9.62683339 6.77149709,9.58753065 C6.73608682,9.56203699 6.69540716,9.5301699 6.66863869,9.50212687 C6.63280687,9.45963743 6.59908281,9.4307446 6.56282944,9.38804271 C6.53606096,9.35745031 6.48252401,9.32494589 6.45301545,9.29329125 C6.40727719,9.23465582 6.34256914,9.17283368 6.28165505,9.12652019 C6.24624478,9.09274108 6.23465213,9.07723243 6.22116251,9.05938687 C6.20999141,9.04387822 6.19734489,9.02688244 6.16762555,8.99607759 C6.13790622,8.96569764 6.1286321,8.95677486 6.11535325,8.94466537 C6.10249595,8.93298077 6.08689857,8.91810946 6.04748357,8.87880673 C6.03420472,8.865635 6.01333796,8.83631729 5.99268197,8.80784936 C5.97413373,8.7819308 5.95685015,8.75771181 5.94483595,8.74454009 C5.90942568,8.70566225 5.88476496,8.67953124 5.85926114,8.65233799 C5.8407129,8.6330053 5.82174311,8.61261036 5.79792549,8.58690425 C5.78401432,8.5718205 5.77200012,8.55355004 5.76040747,8.53591692 C5.74944715,8.51913359 5.7378545,8.50171292 5.72457565,8.48705406 C5.70286579,8.46304752 5.68684686,8.47133296 5.6822098,8.47451967 C5.66914172,8.48344245 5.66408311,8.50893612 5.67946972,8.53995341 C5.6975964,8.57564455 5.72541876,8.61600952 5.74228079,8.6402285 C5.74607474,8.64511479 5.7490256,8.64957618 5.75134413,8.65276289 C5.75851049,8.66381014 5.76504453,8.67549474 5.77115702,8.68696689 C5.78106346,8.70417512 5.79096991,8.72223313 5.80340565,8.73901646 C5.83080646,8.77640717 5.86052579,8.80721202 5.88940202,8.83737952 C5.89888691,8.84693965 5.90879336,8.85692467 5.9178567,8.86712213 C5.93745881,8.88794196 5.95242387,8.90961158 5.96802125,8.93276832 C5.98404018,8.95592507 6.00048066,8.98014405 6.02197975,9.00308835 C6.03188619,9.01307337 6.04052798,9.02475797 6.04832667,9.03601767 C6.05781157,9.04897695 6.06708569,9.06193623 6.07825678,9.07298349 C6.09469726,9.08891703 6.11113774,9.1063377 6.127789,9.12312103 C6.15476825,9.15158896 6.18322293,9.18090667 6.21041296,9.20406342 C6.23106895,9.22169654 6.25277882,9.24421595 6.27427791,9.26567311 C6.32992261,9.33153175 6.38957205,9.39781528 6.4388935,9.46091211 C6.46734818,9.49745303 6.51877738,9.52400893 6.55081524,9.54844036 C6.58622551,9.57499627 6.61425863,9.6219471 6.64229176,9.65785068 C6.66379085,9.68291945 6.71058299,9.72604624 6.73334674,9.75260214 C6.78878067,9.82419685 6.82672024,9.8626498 6.89880543,9.91661139 C6.94285749,9.94932827 6.9770031,9.97928332 7.01072717,10.0224101 C7.03054006,10.0483287 7.09398345,10.1099384 7.11695797,10.1388312 C7.17702896,10.2157371 7.20421899,10.2873318 7.1955772,10.2892438 C7.154476,10.3002911 7.05477923,10.2117006 6.99639444,10.1732476 C6.94728377,10.1403183 6.93990663,10.1271466 6.89416837,10.0929426 C6.88384038,10.0840198 6.81112286,10.0319702 6.78561904,10.0003156 C6.76580615,9.98225758 6.71100454,9.92298481 6.69456406,9.90195254 C6.61172933,9.79572893 6.58348543,9.78914306 6.48842572,9.69566629 C6.41908061,9.62747073 6.3335058,9.56628593 6.26563612,9.50531358 C6.24582323,9.48364396 6.22558879,9.46197435 6.20598668,9.43987983 C6.18322293,9.41757288 6.1551898,9.3965406 6.13600924,9.37444609 C6.10418216,9.33429357 6.0618163,9.2556881 6.02429828,9.22743262 C5.98446173,9.19747756 5.9555855,9.16922208 5.91574895,9.13905457 C5.90162699,9.129282 5.88855892,9.11058664 5.87443697,9.09953939 C5.8552564,9.08530543 5.83249266,9.06873454 5.81773838,9.05025163 C5.77157857,8.99076641 5.72584031,8.93064385 5.67946972,8.87052129 C5.65754908,8.84205336 5.62719742,8.81825927 5.60569833,8.78872911 C5.55996006,8.72563228 5.52286359,8.65998609 5.47691455,8.59922619 C5.41304961,8.51509709 5.32115153,8.45518697 5.25939434,8.36999564 C5.19616172,8.28289228 5.15822214,8.18070517 5.09815115,8.08935286 C5.07222578,8.04983768 5.0317569,8.02179465 5.0043561,7.98440394 C4.98728329,7.96188453 4.9786415,7.93681576 4.96304412,7.91280922 C4.93142781,7.86394636 4.89390979,7.81635819 4.86145037,7.76898246 C4.81908452,7.70652297 4.79020829,7.63832742 4.74826398,7.57289367 C4.74109762,7.563546 4.72634334,7.51935698 4.70041797,7.4866401 C4.67491414,7.45392323 4.65278272,7.41695742 4.62390649,7.37043147 C4.59460871,7.32411798 4.58027598,7.29331313 4.55962,7.26144605 C4.53875323,7.22936652 4.52505283,7.19919902 4.5107201,7.17667961 C4.4970197,7.15416021 4.46666804,7.1123081 4.4559185,7.09573722 C4.41713582,7.03540221 4.4070186,7.00735918 4.36570662,6.95191045 C4.3410459,6.9179189 4.31469898,6.88987587 4.29256756,6.89837375 C4.27486242,6.91069569 4.28097491,6.93172797 4.28497964,6.94681172 C4.30310633,6.99631192 4.30310633,6.98760159 4.32207611,7.02286782 C4.3539032,7.08192815 4.36528507,7.11018363 4.39985224,7.16350788 C4.41587117,7.18963889 4.44348275,7.24848677 4.46624649,7.28077875 C4.48837791,7.31370807 4.5107201,7.35152367 4.52589593,7.37871692 C4.54191486,7.40739729 4.56615403,7.48260361 4.59060398,7.51383335 C4.60788756,7.5365652 4.63212673,7.58287869 4.64856722,7.61559557 C4.68186973,7.68230399 4.72423559,7.73477846 4.75859198,7.78767781 C4.78198805,7.83101705 4.80454101,7.87478117 4.82772631,7.9181204 C4.8732538,7.98759065 4.92763385,8.05323684 4.97337211,8.12398176 C5.00140524,8.17390686 5.02859527,8.2240444 5.05620685,8.27418194 C5.08297532,8.31518426 5.12028257,8.34981315 5.14705105,8.39209015 C5.17929968,8.44201525 5.19763714,8.49661418 5.22988578,8.54547704 C5.2553896,8.58414244 5.28869212,8.62089581 5.31419594,8.6595612 C5.35782645,8.72563228 5.39745223,8.78936645 5.44340126,8.85246327 C5.46869431,8.88666728 5.50241838,8.91619744 5.52750065,8.95061389 C5.56248937,8.99798962 5.59010095,9.05428813 5.62635432,9.09422821 C5.66956327,9.13480563 5.68178825,9.15902461 5.71530154,9.19896469 C5.76588763,9.25993704 5.89108822,9.4388176 5.87001068,9.43987983 C5.79623929,9.44965241 5.65501977,9.28776763 5.59494878,9.22913219 C5.54857819,9.18303115 5.49735977,9.14967693 5.46490036,9.10612525 C5.41789744,9.0415413 5.38333027,8.96973414 5.33569503,8.90684976 C5.318833,8.88433036 5.29290763,8.86627234 5.27562404,8.84460273 C5.24295386,8.80211328 5.2126022,8.75728692 5.17466262,8.7203211 C5.15906524,8.7050249 5.14220321,8.69164073 5.12765971,8.67464495 C5.07011802,8.59965108 5.02163968,8.51998338 4.96515187,8.44244014 C4.9417558,8.41057306 4.91077182,8.38253003 4.8877973,8.35066294 C4.86967061,8.32601907 4.85976417,8.29882582 4.84332369,8.27248237 C4.82055995,8.23721613 4.79147294,8.20258723 4.7687092,8.16795833 C4.75142561,8.14182733 4.74109762,8.11590877 4.72381404,8.08956531 C4.69346238,8.04303937 4.65278272,8.00246195 4.62264184,7.95529867 C4.59798112,7.91705817 4.59144708,7.86649573 4.56657558,7.82868013 C4.50397529,7.73116685 4.43441941,7.631954 4.37266221,7.53465317 C4.35664328,7.5095844 4.35053079,7.48132892 4.33493341,7.45626015 C4.28455809,7.37722979 4.2373444,7.28991398 4.18760141,7.21130851 C4.16905317,7.18199079 4.16125448,7.14884903 4.14270625,7.12016865 C4.11952095,7.08447752 4.08453223,7.05707183 4.06155772,7.02180559 C4.04427413,6.99461234 4.03731854,6.96486973 4.02319659,6.93385244 C4.00422681,6.89285013 3.97914453,6.85184781 3.95785622,6.81296997 C3.94457737,6.78896344 3.93762178,6.76431956 3.92328905,6.74116281 C3.86300728,6.64704869 3.81368584,6.54571137 3.7643644,6.44118734 C3.73886057,6.38680085 3.70049945,6.33560107 3.67499562,6.28078969 C3.64611939,6.22024223 3.61850782,6.1579952 3.59131779,6.09850997 C3.57698506,6.058145 3.56265233,6.01820493 3.54853038,5.9780524 C3.51902183,5.91453068 3.47454822,5.86056909 3.44567198,5.79513535 C3.4258591,5.75073388 3.4155311,5.70888178 3.39740442,5.67170351 C3.3864441,5.64897166 3.36452345,5.63006386 3.34850452,5.64026132 C3.33290714,5.6500339 3.33037784,5.67042883 3.34028428,5.70505773 C3.35967562,5.77176615 3.39635054,5.84782226 3.41321257,5.88585031 C3.44735819,5.96148152 3.46422022,6.04008699 3.49878739,6.11720533 C3.51733562,6.15969477 3.5449472,6.20048464 3.56391699,6.24148695 C3.59764105,6.31329411 3.62925736,6.38765064 3.66171677,6.45648354 C3.68068656,6.49706096 3.69565161,6.5359388 3.71736148,6.57396685 C3.72895413,6.59414934 3.74539461,6.61666874 3.75530105,6.6389757 C3.77658937,6.68783856 3.78354496,6.73946323 3.80504405,6.78577673 C3.82801857,6.83442714 3.86511504,6.87521701 3.88745723,6.92280518 C4.00190828,7.16839417 4.11783475,7.40314835 4.25631419,7.62133164 C4.29488609,7.6818791 4.31469898,7.75644807 4.35348165,7.81699553 C4.3933182,7.87945501 4.44854136,7.92831787 4.48837791,7.99035246 C4.52146965,8.04112734 4.52926834,8.11165982 4.55919844,8.16625876 C4.60367205,8.24890072 4.66289994,8.31837097 4.71201061,8.39506441 C4.72550024,8.41652158 4.7292942,8.44137791 4.74320537,8.46347242 C4.76175361,8.49321503 4.78514968,8.5223203 4.80454101,8.55163801 C4.82962329,8.59179054 4.84248059,8.63831648 4.87009217,8.67549474 C4.89917917,8.71585971 4.94133425,8.74942637 4.97042126,8.79021624 C5.00709618,8.84077868 5.0317569,8.89941411 5.06969647,8.95018899 C5.0960434,8.98566768 5.13672305,9.00988666 5.16306998,9.0451529 C5.20606816,9.10145141 5.35087086,9.29414104 5.39323672,9.34873998 C5.45794477,9.4311695 5.57197426,9.55268931 5.62593276,9.66146228 C5.64237325,9.69524139 5.69991493,9.7744842 5.68768996,9.7902053 C5.65670597,9.81123757 5.51274637,9.65232705 5.48829643,9.62853296 C5.42780388,9.56989753 5.37553158,9.49022983 5.32325928,9.42330895 C5.31103431,9.40865009 5.17213332,9.27140919 5.16075145,9.25632544 C5.14705105,9.23847987 5.13229677,9.21893473 5.12028257,9.20087671 C5.08213222,9.14309107 5.05852538,9.07319593 5.01700262,9.01795966 C5.00014059,8.9956527 4.97379366,8.97844447 4.95693163,8.95592507 C4.92489377,8.91386052 4.90255158,8.86478521 4.87177837,8.82165843 C4.82224615,8.75388776 4.7592243,8.69334031 4.70990286,8.62578209 C4.65594435,8.55142556 4.61800478,8.4643222 4.56341395,8.39060302 C4.53622393,8.35427455 4.50165676,8.32155767 4.47573138,8.28267983 C4.46456029,8.26504671 4.45971245,8.24805094 4.44854136,8.23020537 C4.42872847,8.20003786 4.40238154,8.16583386 4.38678416,8.13247965 C4.37224066,8.1016748 4.36296654,8.07235709 4.34526141,8.04431405 C4.28835205,7.95466133 4.23123192,7.85948497 4.17432256,7.77004469 C4.14881873,7.72989217 4.13448601,7.68612804 4.10877141,7.64597552 C4.06640555,7.57969199 4.0128686,7.52020676 3.97008119,7.45307344 C3.91949509,7.37425552 3.89230507,7.27844183 3.84214052,7.19898657 C3.80883801,7.146937 3.77005533,7.0974368 3.73717437,7.04517478 C3.70049945,6.98845137 3.68237276,6.92216784 3.64991335,6.86268262 C3.62188022,6.81042061 3.58225445,6.76198264 3.55759372,6.70908328 C3.5304037,6.65235987 3.51143391,6.59542402 3.48403311,6.53657614 C3.46906805,6.50513395 3.44651509,6.47411666 3.43218236,6.44161223 C3.414688,6.40124726 3.41026172,6.36024495 3.39255658,6.32136711 C3.34281359,6.21174434 3.26819909,6.10743276 3.21719145,5.99823489 C3.18051653,5.92005431 3.14847866,5.83932437 3.11833778,5.75689485 C3.1018973,5.71143114 3.09452016,5.6689417 3.07470727,5.62645225 C3.02939056,5.52617717 2.97353508,5.41995356 2.92906147,5.32010336 C2.91051323,5.26677911 2.89154345,5.21345486 2.87215211,5.16013061 C2.86856893,5.1452593 2.86688273,5.13017555 2.86119179,5.11445446 C2.8405358,5.06750362 2.81292422,5.02119013 2.79479754,4.97445174 C2.7779355,4.9198528 2.76107347,4.86589121 2.74378989,4.81171717 C2.6733909,4.63474864 2.61036906,4.4352607 2.54418558,4.25128141 C2.53512224,4.2175023 2.53343604,4.17607509 2.52100029,4.14017151 C2.48685467,4.04605739 2.45228751,3.95130593 2.41814189,3.85676692 C2.3991721,3.8089663 2.35343384,3.82532473 2.36376184,3.8737627 C2.37788379,3.93940889 2.38652558,3.95491754 2.39706435,4.00590487 C2.40254451,4.03224832 2.40739234,4.05816688 2.4128725,4.08408544 C2.41982809,4.11531519 2.43584702,4.1486694 2.44491037,4.17862446 C2.4626155,4.23492297 2.46388015,4.29079659 2.48327149,4.34475818 C2.51003997,4.42123918 2.53701922,4.49432102 2.56189072,4.5729265 C2.56926785,4.61180434 2.5774881,4.65110707 2.58528679,4.69019736 C2.59645788,4.72652583 2.61079061,4.76412899 2.62406946,4.79748321 C2.66306291,4.8937218 2.69973783,4.98634878 2.73388345,5.08131269 C2.74737307,5.13548673 2.76149502,5.18987322 2.77498465,5.24404726 C2.78868505,5.27442721 2.80955182,5.30565695 2.82325222,5.33518712 C2.83505564,5.36131812 2.83758494,5.385962 2.84875604,5.41358014 C2.87299521,5.47476494 2.8953374,5.53743687 2.92252743,5.59904656 C2.94550195,5.65024634 2.97269198,5.70144612 2.99292642,5.75583261 C3.00198976,5.78217607 3.00198976,5.80490792 3.01126388,5.83061403 C3.06985944,5.99228637 3.13372439,6.16181925 3.20243717,6.31329411 C3.2192992,6.35174706 3.22414703,6.39147469 3.24143062,6.43035253 C3.25597412,6.46264451 3.27557623,6.49706096 3.29011974,6.5282907 C3.29707532,6.54889808 3.30445246,6.56971791 3.31140805,6.59011284 C3.33290714,6.63557654 3.36916051,6.67296725 3.39002728,6.71758117 C3.44946594,6.84334992 3.50215979,6.96232037 3.57614196,7.07003111 C3.64485474,7.16924396 3.67457407,7.30053634 3.72684637,7.41886944 C3.7515071,7.47474306 3.78480961,7.52318102 3.81621515,7.57225633 C3.83139097,7.59838734 3.84171897,7.62664282 3.85436549,7.65383606 C3.88830033,7.71544576 3.90663779,7.7696198 3.94668512,7.82379384 C3.97872298,7.8686202 3.9759829,7.87860522 4.00317293,7.9414896 C4.01097162,7.96018495 4.04132328,8.07766827 4.03563234,8.07766827 C4.0248828,8.08510392 3.96734111,8.04983768 3.94794977,8.02816806 C3.92160285,7.9986379 3.88008009,7.95912272 3.85204696,7.89496366 C3.83792501,7.86330902 3.80883801,7.8078603 3.79387295,7.776843 C3.75761958,7.69844998 3.69628394,7.6323789 3.651178,7.56142152 C3.62483108,7.51956942 3.61028758,7.47346838 3.58857771,7.42757978 C3.55021659,7.34557515 3.50700763,7.26144605 3.46717108,7.17625472 C3.45051982,7.14120093 3.42543755,7.10657203 3.40583543,7.07512984 C3.38475789,7.04241297 3.37485145,7.00693428 3.35335236,6.97379252 C3.30782487,6.90177291 3.25660645,6.82040562 3.2201423,6.74222505 C3.19295228,6.68465185 3.17925187,6.62580397 3.1524834,6.56950546 C3.14426316,6.55144745 3.12908733,6.53360188 3.11833778,6.51724344 C3.09978955,6.48792573 3.09241241,6.45520886 3.07681503,6.42270443 C3.05615904,6.37872786 3.02538583,6.33730065 3.00472984,6.29204939 C2.96447174,6.20303401 2.94023257,6.11019457 2.89849904,6.02160408 C2.8791077,5.98038932 2.84622674,5.94533553 2.8268354,5.90390832 C2.79732684,5.8408115 2.79437599,5.76220603 2.76486743,5.6954976 C2.68814518,5.52107843 2.59961951,5.34092319 2.53343604,5.15758124 C2.52310804,5.12720129 2.52015719,5.09257239 2.51067229,5.05985552 C2.48242839,4.98061271 2.44364571,4.90646863 2.41561258,4.82828805 C2.40296606,4.79259692 2.3991721,4.75988005 2.38652558,4.72397647 C2.36713424,4.67086466 2.34247352,4.61499104 2.32266063,4.5612419 C2.31760202,4.54297144 2.31570504,4.52406364 2.3083279,4.50600562 C2.28556416,4.45565563 2.27123143,4.39574551 2.24762459,4.34284616 C2.23539961,4.31565291 2.21642983,4.28739743 2.20568028,4.25807972 C2.18713205,4.2058177 2.19261221,4.13953417 2.17406397,4.08897173 C2.14771705,4.01419031 2.11588996,3.9345226 2.08912148,3.86080342 C2.0735241,3.81852642 2.07078402,3.77667432 2.05581897,3.73375998 C2.03853539,3.68425978 2.0195656,3.62966084 2.00186047,3.58058554 C1.98331223,3.52896086 1.98415533,3.47521172 1.9672933,3.42103767 C1.95506833,3.38046026 1.93820629,3.33818326 1.92450589,3.3005801 C1.89900207,3.22898539 1.88909563,3.15271684 1.86232715,3.08558352 C1.85790087,3.07347402 1.85368536,3.06051474 1.84925907,3.0486177 C1.84230349,3.03034724 1.83028929,3.01250167 1.81174105,3.01760041 C1.79108506,3.02333648 1.79150661,3.05031728 1.79277127,3.06773795 C1.79656522,3.12063731 1.81595656,3.16950017 1.83113239,3.21198961 C1.84757287,3.25702842 1.85579311,3.30546639 1.86822886,3.34880562 C1.87518445,3.37599886 1.8739198,3.40701616 1.88087538,3.43675877 C1.89036028,3.47861087 1.90553611,3.51918829 1.91755031,3.5606155 C1.9270352,3.6020427 1.92197659,3.64198278 1.93103993,3.67427476 C1.95780841,3.76392749 1.98752774,3.86505236 2.01766862,3.95130593 C2.03031515,3.99549495 2.0324229,4.04626984 2.04506942,4.08472279 C2.06172068,4.13018649 2.07816116,4.17586264 2.09460164,4.2215388 C2.10851282,4.25977929 2.11230678,4.29653266 2.12790416,4.33243624 C2.14434464,4.37025185 2.16373598,4.41040437 2.1772256,4.45310626 C2.19450919,4.50876744 2.19303376,4.56357882 2.21179277,4.61541594 C2.2423552,4.70039483 2.28113788,4.78133722 2.31064643,4.86355429 C2.32013133,4.89287201 2.32308218,4.9243142 2.33341018,4.9544817 C2.35849245,5.02586397 2.37619758,5.10192007 2.40170141,5.17287744 C2.43837633,5.27400232 2.48559002,5.37257783 2.52142184,5.47264047 C2.55725366,5.57142842 2.56189072,5.68997397 2.60299192,5.78217607 C2.62406946,5.82785222 2.66769997,5.85525791 2.68772363,5.89965938 C2.70100248,5.92812731 2.69720852,5.96105662 2.70711497,5.99419839 C2.71870762,6.032014 2.7368343,6.06940471 2.74990238,6.10467094 C2.75812262,6.13653803 2.76676441,6.16798022 2.77582775,6.1994224 C2.7882635,6.23702556 2.81461042,6.27420382 2.83105091,6.31031985 C2.85781938,6.36916773 2.87130901,6.43098987 2.9048223,6.48303944 C2.92990457,6.52234218 2.96236398,6.55973289 2.98301997,6.60413436 C3.00599449,6.65342211 3.01421473,6.70589657 3.03655693,6.7573088 C3.06985944,6.83187777 3.10969599,6.90410983 3.13772912,6.98207796 C3.16365449,7.05261043 3.17271784,7.12866654 3.2064419,7.19070113 C3.23974441,7.25231082 3.2818995,7.30775954 3.31562356,7.37000658 C3.33649033,7.41568273 3.35756787,7.46135888 3.37864541,7.50703504 C3.39635054,7.54442575 3.4292315,7.57714262 3.44988749,7.61495822 C3.47581287,7.66148416 3.50131669,7.71119681 3.52218346,7.7583601 C3.53862394,7.79447612 3.5449472,7.82868013 3.56497086,7.85948497 C3.5955333,7.90792294 3.61766471,7.94680078 3.6486487,7.9950263 C3.67583873,8.03815308 3.70661193,8.09232712 3.72600327,8.1435269 C3.740336,8.18197985 3.75614415,8.22234482 3.77785402,8.25442435 C3.80103932,8.28756612 3.83223408,8.31624649 3.85246851,8.35236252 C3.87207063,8.38805365 3.89968221,8.50404983 3.88893266,8.50978591 C3.86427194,8.51870869 3.79387295,8.45072558 3.77469239,8.42671905 C3.71904768,8.35894838 3.69143611,8.26780853 3.64085001,8.19493913 C3.58731306,8.1173959 3.55232434,8.07341932 3.51080158,7.98397904 C3.48635164,7.93235437 3.44398578,7.83951493 3.41405567,7.79341389 C3.38602255,7.75007465 3.34850452,7.71162171 3.32595156,7.66275885 C3.30866797,7.62281877 3.29960463,7.57523059 3.2827426,7.53571541 C3.25597412,7.47814221 3.20159407,7.44096395 3.17440404,7.38211607 C3.1429985,7.31604499 3.12908733,7.24784943 3.09662792,7.18623974 C3.08103054,7.15649713 3.05910989,7.12271802 3.04519872,7.09191317 C3.02622893,7.05239799 3.01758714,7.01394504 2.9990389,6.97442986 C2.96194243,6.8945497 2.90545462,6.82592925 2.86856893,6.7460491 C2.8302078,6.66361958 2.80870871,6.57502909 2.76929371,6.49174978 C2.74863772,6.44734831 2.71217358,6.4095327 2.69109604,6.36428145 C2.66264136,6.30458378 2.64830863,6.24233674 2.6202755,6.18200173 C2.60341347,6.14546081 2.5783312,6.10976968 2.56146916,6.07429099 C2.53701922,6.02181653 2.52837743,5.96551802 2.50455981,5.91113153 C2.45017975,5.78918682 2.39390272,5.66150605 2.33994421,5.53956134 C2.31970978,5.49282295 2.31444039,5.44332275 2.29336285,5.39615947 C2.27249609,5.35473226 2.2518401,5.3135175 2.23118411,5.27209029 C2.18354887,5.16437955 2.16710838,5.0386108 2.11926237,4.93005027 C2.0950232,4.87523889 2.06446076,4.82297687 2.0427509,4.76391655 C2.00902683,4.67086466 1.99574798,4.57547586 1.96202392,4.48051196 C1.91059472,4.3354105 1.86907196,4.18457298 1.81743199,4.04074621 C1.80225616,3.99698208 1.8001484,3.95491754 1.78455103,3.91030362 C1.76895365,3.86802662 1.75335627,3.82574963 1.73796966,3.78347263 C1.72743089,3.74969352 1.72068608,3.70061821 1.71120118,3.65621675 C1.67305084,3.53405959 1.63384661,3.41211489 1.59527471,3.28804572 C1.58705447,3.25894045 1.58494672,3.20604109 1.57504027,3.16780059 C1.56892779,3.14676831 1.55733514,3.12191199 1.55037955,3.10257929 C1.54005156,3.07453626 1.54047311,3.05052972 1.53140976,3.02121201 C1.50295509,2.93155928 1.47871591,2.82746014 1.45068278,2.73801987 C1.44246254,2.70933949 1.43993324,2.66918697 1.4308699,2.63689499 C1.39103335,2.50921421 1.37164201,2.3530655 1.32105591,2.23388261 C1.31157102,2.21136321 1.29723829,2.18693178 1.2748961,2.19224296 C1.25234313,2.19797903 1.25719096,2.22411004 1.25972027,2.24556721 C1.26625431,2.30420264 1.2877534,2.35412774 1.29723829,2.40214081 C1.30124302,2.42381043 1.30082147,2.45397793 1.30292923,2.47989649 C1.30588008,2.50177856 1.30819861,2.52875935 1.31536498,2.55170365 C1.33876105,2.62733486 1.36595107,2.71720004 1.38808249,2.7926188 C1.39545963,2.82873483 1.38934714,2.884396 1.39883204,2.92582321 C1.43129145,3.04734302 1.45531984,3.19159468 1.49895035,3.3005801 C1.5387869,3.39979295 1.54616404,3.5183385 1.57461872,3.62583679 C1.58368206,3.67193784 1.58663292,3.71931357 1.59232386,3.76562706 C1.59927944,3.81087832 1.62436172,3.84210806 1.63806212,3.88013611 C1.64839011,3.9079667 1.64754701,3.93218568 1.65745346,3.96129095 C1.68127108,4.03862174 1.69855466,4.11489029 1.72658779,4.19264597 C1.74555758,4.24597023 1.77422303,4.29674511 1.79319282,4.34921957 C1.80141306,4.37301366 1.79825143,4.39425838 1.80520701,4.42081429 C1.81785354,4.47392609 1.82733843,4.52767524 1.84272504,4.5801497 C1.88003228,4.68573597 1.91628565,4.80066991 1.95380367,4.90604373 C1.97467044,4.96467917 1.98141525,5.02203992 2.00186047,5.07876332 C2.0846952,5.3062943 2.16858381,5.53403771 2.25099699,5.75965666 C2.26448662,5.8097942 2.27818702,5.8597193 2.29167665,5.90943195 C2.30980333,5.96105662 2.33994421,6.00397096 2.36102176,6.04985956 C2.38757946,6.10849499 2.39622125,6.17031713 2.41856344,6.23235172 C2.44491037,6.30522112 2.47863443,6.36151963 2.50624601,6.43778818 C2.51931408,6.47390421 2.53217138,6.51341939 2.54861186,6.54847318 C2.56146916,6.57502909 2.58402213,6.60009786 2.59687943,6.62686621 C2.61816775,6.67190502 2.62280481,6.72841598 2.64325002,6.77366724 C2.66517066,6.81870605 2.70311024,6.85567186 2.72903561,6.89752397 C2.75285323,6.9368267 2.75538254,6.98696424 2.77498465,7.03136571 C2.80596863,7.10083595 2.84622674,7.16372033 2.87594607,7.23680217 C2.88817104,7.26760702 2.89407275,7.29501271 2.90756238,7.32454288 C2.92315976,7.35853443 2.94845281,7.39082641 2.96405019,7.42503041 C2.96447174,7.42503041 2.96531484,7.4258802 2.96615794,7.42927935 C2.96805492,7.43395319 2.97016267,7.44032661 2.97142733,7.44776226 C2.97522128,7.46220867 2.97964757,7.47984179 2.98428463,7.49258863 C2.99124021,7.51192132 3.01295008,7.5482498 3.02201342,7.56078418 C3.02749358,7.56800739 3.04309096,7.58564051 3.05615904,7.60199894 C3.06206075,7.60815991 3.06775169,7.61517067 3.07302107,7.62345611 C3.1027404,7.67040695 3.10611281,7.73732782 3.13035198,7.78958984 C3.15459115,7.84057717 3.19780011,7.88072969 3.22203928,7.93320416 C3.24143062,7.97335668 3.25175861,8.07256953 3.22751944,8.07639358 C3.12529337,8.07618114 3.11833778,7.93256682 3.08461372,7.85714805 C3.05742369,7.79872507 3.01547938,7.75007465 2.98491695,7.69398859 C2.97880446,7.68272889 2.96889802,7.66063438 2.96236398,7.63726518 C2.95582995,7.61772004 2.9476097,7.59647532 2.93981101,7.58011688 C2.92653216,7.55207385 2.92653216,7.55674769 2.91746882,7.53720254 C2.90798393,7.51786984 2.8799508,7.48154137 2.87046591,7.46454559 C2.87025513,7.46305846 2.86983358,7.46220867 2.86941203,7.46093399 C2.83062936,7.39783717 2.80428243,7.3075471 2.77667085,7.2652701 C2.76107347,7.24147601 2.74083903,7.21746948 2.7256632,7.19325049 C2.69973783,7.15309797 2.68730208,7.10423511 2.66643532,7.05962119 C2.64704398,7.01883133 2.61648155,6.97825391 2.59772253,6.93533957 C2.57495879,6.88498958 2.57369414,6.82104297 2.54987652,6.76963074 C2.53786232,6.7420126 2.5148878,6.71396957 2.5020305,6.68783856 C2.47336505,6.62920313 2.45692456,6.56631875 2.42804833,6.50853311 C2.41476948,6.48112742 2.39053031,6.45499641 2.37704069,6.42695338 C2.35427694,6.37809051 2.34247352,6.32561605 2.31718047,6.28015235 C2.26343274,6.18370131 2.20610183,6.07599057 2.16120667,5.97359101 C2.1352813,5.91346845 2.12663951,5.85270854 2.10071413,5.79428556 C2.07816116,5.74308578 2.04717718,5.69294823 2.02462421,5.64429782 C2.00944838,5.61158095 2.00523287,5.57928897 1.9921648,5.54338539 C1.97150881,5.48644954 1.94558343,5.42738921 1.92450589,5.3706658 C1.91228092,5.33136307 1.90237448,5.24532194 1.89036028,5.21111794 C1.8747629,5.1682036 1.85242071,5.12189011 1.83408325,5.0804629 C1.80647167,5.01715363 1.79740832,4.95129499 1.7693752,4.88841062 C1.74829766,4.83997265 1.72448003,4.78856042 1.70635335,4.73863533 C1.69117752,4.69614588 1.68696201,4.65726804 1.66967843,4.61796531 C1.65703191,4.5882227 1.63932677,4.55401869 1.62815568,4.52321385 C1.61487682,4.48624803 1.60560271,4.42570057 1.59401006,4.37683771 C1.57588338,4.32245122 1.55311963,4.2706141 1.53667915,4.2170774 C1.52719426,4.17777467 1.52571883,4.08557258 1.51581238,4.0609287 C1.46016768,3.89500742 1.40789538,3.71867623 1.35604463,3.5529674 C1.33222701,3.47627395 1.32105591,3.39979295 1.29955682,3.32479908 C1.29217968,3.29526892 1.29133658,3.25724087 1.28353789,3.22707336 C1.26878361,3.17927274 1.24854917,3.12998498 1.23337334,3.08069723 C1.2251531,3.04776791 1.22009449,3.01335146 1.21356046,2.97957235 C1.20576177,2.94536835 1.18763508,2.91010211 1.17498856,2.87547322 C1.14316147,2.77583547 1.12587789,2.66982431 1.09658011,2.57273593 C1.08646289,2.53237096 1.08688444,2.47968405 1.07613489,2.44250578 C1.03861687,2.32204821 1.02955353,2.18183305 0.99414326,2.0552145 C0.985923019,2.01846113 0.980232083,1.98149532 0.972011842,1.94792866 C0.910254649,1.7114749 0.883064622,1.44612833 0.814773391,1.21859736 C0.80149454,1.17525812 0.818356573,1.1193845 0.80655315,1.07243367 C0.792852749,1.01953431 0.778520021,0.972795923 0.762711866,0.925632641 C0.756599379,0.901626105 0.756177829,0.882505855 0.750908443,0.860623792 C0.739315796,0.822170845 0.722453764,0.79200334 0.701376223,0.796252284 C0.676715501,0.804537726 0.682195662,0.827269578 0.683038763,0.860198897 C0.684935742,0.912460913 0.689994352,0.956649935 0.700743897,0.99977672 C0.70980724,1.03546785 0.703905528,1.06542291 0.713811972,1.09750244 C0.735732614,1.17143407 0.742266652,1.27510832 0.754491625,1.3416043 C0.759128684,1.36943488 0.755756278,1.40661314 0.761236438,1.43911757 C0.767770476,1.47268423 0.79369585,1.51687325 0.800651439,1.55320173 C0.808028578,1.60248948 0.807185476,1.66643609 0.815405717,1.719123 C0.82489061,1.76394937 0.83774791,1.80665126 0.849340557,1.8491407 C0.859247001,1.88525673 0.851659087,1.92009807 0.862408632,1.95345229 C0.873579729,1.98850608 0.891706413,2.02228518 0.898662002,2.06095058 C0.904352938,2.10259023 0.898240451,2.16398748 0.906460692,2.2005284 C0.959576093,2.40851423 0.975173473,2.65516545 1.03566601,2.85465339 C1.04325393,2.88312132 1.04430781,2.91392616 1.05147417,2.94281898 C1.10163872,3.1174506 1.13999984,3.3041917 1.19227214,3.47669885 C1.19838463,3.50410454 1.19754152,3.53193512 1.20449711,3.56146529 C1.22135915,3.62265009 1.23695653,3.68808383 1.24981382,3.75011842 C1.25592631,3.77752411 1.25550476,3.80408001 1.26267112,3.8314857 C1.28079781,3.89543231 1.30335078,3.9574669 1.32358522,4.02035128 C1.33138391,4.05094368 1.33454554,4.08132363 1.3400257,4.11149114 C1.34487353,4.13571012 1.35815238,4.16332826 1.36510797,4.186485 C1.37585752,4.22260103 1.37248511,4.25744238 1.38449931,4.29079659 C1.39187645,4.31012929 1.40705228,4.3317989 1.41253244,4.35261873 C1.42033113,4.38958455 1.42517896,4.42697526 1.43550696,4.46330373 C1.44983968,4.5072803 1.47344653,4.55019464 1.49157321,4.59374632 C1.50464129,4.62986235 1.50421974,4.66661572 1.51792014,4.70124462 C1.54258086,4.76264186 1.56892779,4.83508636 1.59232386,4.89988277 C1.61213674,4.95363191 1.61445527,5.0080184 1.63342506,5.06282978 C1.64628236,5.09852092 1.66314439,5.13591163 1.67600169,5.17032808 C1.68337883,5.19858356 1.68822667,5.22598925 1.69813311,5.25509452 C1.7067749,5.28122552 1.73480803,5.32244028 1.75335627,5.35643184 C1.76853209,5.394035 1.76157651,5.44565967 1.77380148,5.48623709 C1.78623723,5.52830164 1.80921175,5.5618683 1.8233337,5.60032125 C1.83640177,5.63919909 1.83598022,5.6806263 1.84630822,5.72077882 C1.85747931,5.75115877 1.87834608,5.78111383 1.89120338,5.80915686 C1.90321758,5.84272352 1.915021,5.87629018 1.92745675,5.90985684 C1.93694164,5.93152646 1.95506833,5.95383342 1.96497477,5.97529059 C1.98331223,6.01416843 1.99785573,6.05602053 2.01429622,6.09574816 C2.03684918,6.15268402 2.03895694,6.2227916 2.05624052,6.28801289 C2.06087758,6.30628335 2.06045603,6.35110972 2.04886338,6.35620845 C2.02293801,6.36088229 1.99364023,6.31966753 1.97593509,6.29374897 C1.94558343,6.25062218 1.91628565,6.20239666 1.89373268,6.15013465 C1.88635555,6.12995216 1.88129694,6.11104436 1.87518445,6.09149922 C1.85790087,6.04815998 1.84504357,5.99908468 1.82523068,5.95468321 C1.81384881,5.92812731 1.79656522,5.89859714 1.78708033,5.86991677 C1.77295838,5.82827711 1.77970319,5.77941425 1.76326271,5.74308578 C1.74956231,5.71270583 1.72532314,5.68869929 1.71162274,5.65810689 C1.70150552,5.63048875 1.69686846,5.60117104 1.68485426,5.57376534 C1.67009998,5.54019868 1.64986554,5.51024363 1.63152808,5.47880144 C1.61782768,5.44820904 1.61951388,5.41719174 1.60876434,5.38086327 C1.59696092,5.33837383 1.58410362,5.29630928 1.56597693,5.25721899 C1.54785025,5.21791625 1.52487573,5.17733883 1.50759214,5.13654897 C1.4993719,5.11402956 1.4951564,5.09087282 1.48862236,5.06814096 C1.47787281,5.03754856 1.46227543,5.00419435 1.44983968,4.97360195 C1.4428841,4.95108255 1.43761471,4.92686356 1.42812982,4.90540639 C1.41316476,4.87183973 1.39588118,4.83444902 1.38239155,4.79748321 C1.37206356,4.7673157 1.37037736,4.73566107 1.36004936,4.70634335 C1.3417119,4.65408133 1.32358522,4.59502101 1.30630163,4.54360878 C1.29470899,4.5036687 1.29049348,4.46330373 1.27953316,4.42293876 C1.2645681,4.37620037 1.24370134,4.32988688 1.22641776,4.28272359 C1.21356046,4.24490799 1.2106096,4.20433057 1.19964928,4.16587762 C1.18194414,4.11552763 1.15686187,4.06878924 1.13999984,4.01567744 C1.1300934,3.97425023 1.12840719,3.93218568 1.11934385,3.89203316 C1.09004607,3.79409499 1.05927286,3.68595936 1.02828888,3.58589672 C0.993300158,3.47393703 0.990560078,3.34753094 0.95788989,3.23450902 C0.935336922,3.15377907 0.906882242,3.07581094 0.88222152,2.99656813 C0.873158178,2.95535337 0.871893525,2.91668798 0.861565531,2.87611056 C0.839855664,2.78709517 0.806763926,2.66961186 0.77767692,2.57655998 C0.762501091,2.52727222 0.766927374,2.47713468 0.753016197,2.42381043 C0.738472695,2.37112352 0.737629593,2.3076018 0.720767561,2.25130329 C0.710018015,2.2162495 0.69694994,2.19118072 0.688729699,2.1469917 C0.680087908,2.10259023 0.680931009,2.05011577 0.674396972,2.01676156 C0.667652159,1.98383224 0.610532024,1.78625632 0.603997987,1.7497154 C0.597253174,1.71317448 0.597674725,1.6466785 0.593248441,1.62309686 C0.590297586,1.60673842 0.560578254,1.52154709 0.556995072,1.49966503 C0.552779564,1.47714562 0.552779564,1.4518644 0.544137772,1.40831272 C0.53507443,1.36454859 0.509992157,1.26703532 0.505987424,1.23899229 C0.501350365,1.21073681 0.501350365,1.15358851 0.495659429,1.12512058 C0.489968493,1.0968651 0.470998707,1.03185625 0.458141407,0.985330309 C0.443387129,0.929244243 0.455190551,0.868909233 0.439593172,0.816009876 C0.4282113,0.776919587 0.414510898,0.738041746 0.400599722,0.700863483 C0.391536379,0.667934164 0.380365283,0.62395759 0.378257529,0.603987551 C0.375939,0.574457388 0.373831246,0.511785458 0.372566593,0.489266053 C0.371723491,0.456761628 0.358233866,0.403649824 0.354861459,0.35733633 C0.351067502,0.294027059 0.337577876,0.226256396 0.327671432,0.187803449 C0.321980496,0.164646702 0.323877475,0.137028564 0.31902964,0.116208736 C0.303432261,0.0533243597 0.288256431,-0.00382394222 0.256850896,0.000212554939 C0.234297928,0.0042490521 0.226077687,0.0220946185 0.235773356,0.0635218262 C0.246944452,0.111747345 0.252003062,0.14956295 0.263806485,0.197151127 C0.270129747,0.22285724 0.271183624,0.286378959 0.272026725,0.307411234 C0.273712929,0.341615236 0.275399132,0.349475783 0.27961464,0.381980207 C0.281511619,0.395151935 0.286991779,0.426594123 0.290996512,0.440190745 C0.296476672,0.462922598 0.303432261,0.493939892 0.302589159,0.510298328 C0.301746057,0.532180391 0.301324507,0.555549585 0.301324507,0.586991774 C0.301324507,0.603137762 0.302589159,0.60866139 0.308701646,0.636491976 C0.314814132,0.664322561 0.318186539,0.669633742 0.320294293,0.693215383 C0.321558945,0.71254808 0.31902964,0.73166833 0.320715844,0.749089002 C0.321137394,0.770758618 0.323455924,0.79200334 0.329779186,0.811760931 C0.34242571,0.852975692 0.369194187,0.909911546 0.358233866,0.971096346 C0.346219668,1.03589275 0.366032556,1.09728999 0.380365283,1.15358851 C0.387320871,1.18970453 0.379943732,1.22964461 0.386899321,1.26406106 C0.400178171,1.31228658 0.411560043,1.36369881 0.424838893,1.41383635 C0.435166888,1.45483866 0.427789749,1.49180448 0.438328519,1.53089477 C0.453715124,1.58570615 0.490600819,1.65942533 0.495659429,1.68406921 C0.499664162,1.70871309 0.499031836,1.77478417 0.506408975,1.81748607 C0.513786114,1.85955062 0.523692558,1.90756369 0.526432638,1.93433204 C0.529805045,1.96110039 0.525378761,1.97320988 0.528118841,1.99296747 C0.531491248,2.01272506 0.558259724,2.10832631 0.562264457,2.13297019 C0.566901516,2.15761406 0.565636863,2.1703609 0.570906248,2.19627946 C0.575964858,2.22219802 0.597253174,2.32438513 0.601890233,2.3575269 C0.607159618,2.39045622 0.605473415,2.41000136 0.611375126,2.44271823 C0.62128157,2.49370556 0.641305233,2.5366199 0.652054779,2.58548276 C0.659010367,2.62138634 0.656691838,2.64390575 0.661118121,2.67322346 C0.671446116,2.71889962 0.686621945,2.76011438 0.694842186,2.80345361 C0.701376223,2.83659538 0.701797774,2.87058693 0.708542587,2.90457849 C0.723718416,2.97808522 0.734467962,3.0526542 0.754070074,3.12573604 C0.766505823,3.16886283 0.791588096,3.20837801 0.804023845,3.24959277 C0.814773391,3.28804572 0.817513471,3.32926048 0.827419915,3.36686363 C0.837326359,3.39979295 0.860300878,3.42953556 0.86894267,3.46437691 C0.87442283,3.49475686 0.873579729,3.52513681 0.878427563,3.55551676 C0.886226253,3.58993321 0.901612857,3.62456211 0.908146895,3.65982835 C0.91341628,3.68680915 0.911097751,3.7131526 0.917631788,3.74098319 C0.927538232,3.77178803 0.94229251,3.79919372 0.949669649,3.82893633 C0.957046789,3.86675194 0.956625238,3.90477999 0.966110131,3.94280804 C0.977281227,3.98657217 0.995407912,4.02927406 1.00931909,4.06985148 C1.02175484,4.10787953 1.0152208,4.14909429 1.02660267,4.19030905 C1.05105262,4.27932444 1.08013962,4.3776875 1.10985896,4.46054192 C1.12271626,4.50600562 1.1206085,4.55189422 1.13704898,4.60075708 C1.14864163,4.63326151 1.16297436,4.65514357 1.17541011,4.68212437 C1.18594888,4.71144208 1.17646398,4.74330917 1.18510578,4.77645093 C1.19922773,4.82998763 1.20786952,4.90264458 1.22683931,4.95554394 C1.24770607,5.01524161 1.28227324,5.06410447 1.30335078,5.12189011 C1.32400677,5.18307491 1.32506064,5.24404726 1.34529508,5.30735653 C1.36468642,5.36110568 1.39187645,5.41103077 1.41211089,5.46053098 C1.42939447,5.50408266 1.42307121,5.56144341 1.43951169,5.60711956 C1.45763837,5.65746955 1.49304864,5.69592249 1.51201843,5.74733472 C1.53351752,5.80639505 1.54785025,5.86418069 1.56597693,5.92324102 C1.57166787,5.94830979 1.57672648,5.97316612 1.58157431,5.99823489 C1.6030734,6.07450344 1.64375306,6.13738782 1.66967843,6.21025721 C1.68000642,6.24446121 1.68295728,6.27292914 1.69244217,6.30458378 C1.71099041,6.35663335 1.73185717,6.41059494 1.75567479,6.46115738 C1.77633078,6.5053464 1.80478546,6.54953542 1.8250199,6.59478668 C1.84335736,6.63621389 1.84715132,6.67870333 1.86485645,6.72204256 C1.88129694,6.76325732 1.90153137,6.80872103 1.91755031,6.85227271 C1.9270352,6.87882861 1.92829985,6.9021978 1.93947095,6.92705413 C1.99047859,7.04283786 2.05350044,7.15968383 2.10640507,7.2729182 C2.13485975,7.33516524 2.1481386,7.40229856 2.1772256,7.46560783 C2.2004109,7.51447069 2.22844403,7.56227131 2.25015389,7.61538312 C2.26385429,7.64894978 2.26785903,7.68124176 2.28219175,7.71310884 C2.31106798,7.77514343 2.35111531,7.83781536 2.37893766,7.8992126 C2.38652558,7.91472125 2.40781389,7.98057989 2.3991721,8.00586111 C2.398329,8.00926026 2.39706435,8.01414655 2.39305962,8.01605857 C2.37366828,8.02136975 2.33530716,7.98844043 2.31401884,7.96677082 C2.240669,7.89453876 2.22928713,7.75772275 2.17764715,7.66339619 C2.16289288,7.63684029 2.14560929,7.60709768 2.13254122,7.5788422 C2.12537485,7.5590846 2.12094857,7.53996436 2.11146368,7.51999432 C2.07984737,7.45944686 2.04022159,7.40442303 2.01176691,7.34068886 C1.9913217,7.29416292 1.98879239,7.24126357 1.9681364,7.19707454 C1.88466934,7.01564462 1.78834498,6.84058811 1.70803955,6.65894574 C1.67094308,6.57587888 1.66314439,6.48176476 1.63110653,6.39189958 C1.61171519,6.33857533 1.57988811,6.29438631 1.55817824,6.24488611 C1.54005156,6.20579582 1.53583605,6.16436861 1.51855247,6.12442854 C1.4951564,6.07259141 1.46227543,6.023941 1.44204099,5.96785494 C1.42981602,5.93152646 1.42475741,5.89413575 1.41126778,5.85801972 C1.3948273,5.81829209 1.36805883,5.78536277 1.35077524,5.74648493 C1.32548219,5.68912418 1.32147746,5.63261322 1.30292923,5.56717948 C1.29260123,5.53191324 1.2782685,5.49494743 1.26667586,5.4628679 C1.25761251,5.4322755 1.25402933,5.4012582 1.24412289,5.37172804 C1.21925139,5.30353248 1.17857174,5.24319747 1.15306791,5.17287744 C1.13662743,5.12507682 1.13957829,5.0655916 1.11934385,5.019703 C1.10290337,4.98188739 1.07276249,4.95129499 1.05758666,4.91199226 C1.04114617,4.87098994 1.056322,4.82106485 1.04325393,4.77220199 C1.03081818,4.72567605 1.01184839,4.68191192 0.996672565,4.63878513 C0.988030773,4.61095455 0.985501468,4.5837613 0.977702778,4.5572054 C0.957468339,4.50048199 0.937444676,4.44439593 0.916788686,4.38767252 C0.906882242,4.35899215 0.906460692,4.33243624 0.894868044,4.30630524 C0.879692215,4.27295102 0.855031493,4.24150883 0.843017295,4.20518036 C0.829106118,4.15015653 0.824469059,4.09279578 0.811400984,4.03947153 C0.789480342,3.96766437 0.763133417,3.90924138 0.742266652,3.83998359 C0.737208042,3.81810153 0.737208042,3.79664436 0.731517106,3.77221293 C0.714655074,3.71081568 0.706013282,3.64134544 0.68915125,3.58016064 C0.682617212,3.55020558 0.68409264,3.52471192 0.676715501,3.49560665 C0.659853469,3.43739611 0.640040581,3.37833578 0.622335447,3.32267461 C0.613272105,3.28719593 0.611375126,3.25023011 0.602733334,3.21538877 C0.574278655,3.12446136 0.548774831,3.01738796 0.521584804,2.92900992 C0.515050766,2.90287891 0.516947745,2.88014705 0.509149055,2.85082934 C0.487860739,2.78157155 0.45940606,2.69744245 0.44380868,2.62584773 C0.43600999,2.58442053 0.435588439,2.54448045 0.426946647,2.50581506 C0.416197102,2.45695219 0.399335069,2.4106387 0.389428625,2.36241318 C0.386056219,2.33989378 0.389428625,2.322898 0.387320871,2.3039902 C0.383316139,2.27233556 0.380365283,2.24089337 0.374674347,2.20966363 C0.343690363,2.08389488 0.294790469,1.92902086 0.267178891,1.80261476 C0.259380201,1.75715106 0.257693998,1.7114749 0.252846164,1.6660112 C0.247787554,1.63478146 0.2456798,1.59760319 0.236616457,1.56509877 C0.226920789,1.53216945 0.211955735,1.49796545 0.207107901,1.46397389 C0.200152313,1.40937496 0.199730762,1.35668805 0.191721296,1.30442603 C0.191510521,1.30060198 0.190245869,1.29635304 0.189402767,1.29231654 C0.178231671,1.22773259 0.146193809,1.09580286 0.13881667,1.04417819 C0.130385654,0.981081365 0.122586964,0.917559646 0.115209825,0.8561624 C0.113945172,0.816009876 0.106989584,0.773945326 0.101298648,0.731030988 C0.0926568565,0.666022139 0.0774810274,0.608873837 0.0698931128,0.541952963 C0.0650452785,0.496914153 0.0675745834,0.456761628 0.0620944229,0.419158471 C0.0589327918,0.394727041 0.0576681394,0.35351228 0.0283703582,0.35351228 C-0.00134897377,0.35351228 0.0024449835,0.388353624 0.00075878027,0.416396657 C-0.00324595241,0.48416732 0.00940057184,0.572120468 0.0144591815,0.61397257 C0.0239440747,0.691515805 0.016777711,0.766934568 0.0254195025,0.845964934 C0.0300565614,0.889729061 0.0439677381,0.934130529 0.0490263478,0.976195079 C0.0593543426,1.05055161 0.0667314817,1.12639526 0.0762163749,1.19756508 C0.0766379257,1.19883976 0.0766379257,1.199902 0.0770594766,1.20117668 C0.079378006,1.23516824 0.0835935141,1.26809756 0.08928445,1.29953975 C0.0897060008,1.30272645 0.0905491024,1.30591316 0.0909706532,1.30888742 C0.091392204,1.310587 0.0918137548,1.31228658 0.0922353056,1.31377371 C0.0926568565,1.31547329 0.0926568565,1.31717287 0.0930784073,1.31887244 L0.0934999581,1.31950978 C0.0962400383,1.3339562 0.0996124448,1.34840261 0.103827953,1.36263657 C0.112048194,1.39131694 0.108254236,1.41447369 0.116052926,1.44400385 C0.139027445,1.53004498 0.134179611,1.6237342 0.157575681,1.70722596 C0.191721296,1.83235737 0.209847981,1.97066051 0.244836698,2.09472969 C0.254743142,2.13084571 0.245258249,2.16653685 0.255164693,2.20541469 C0.265071137,2.24514232 0.275399132,2.28317037 0.284884025,2.32247311 C0.294368918,2.36984884 0.286991779,2.41743701 0.299638303,2.46545008 C0.3108094,2.50878932 0.323877475,2.55404057 0.336313224,2.59610512 C0.349170523,2.64666756 0.3502244,2.69999181 0.364346352,2.75522809 C0.380365283,2.81067681 0.398913519,2.87143672 0.408819963,2.92794768 C0.420201834,2.99189429 0.426525097,3.06582592 0.438328519,3.13295925 C0.449078065,3.18925776 0.479640498,3.25702842 0.493130124,3.31842567 C0.496502531,3.3392455 0.494816327,3.35942798 0.498610285,3.38046026 C0.506408975,3.42464928 0.51947705,3.4684134 0.528961943,3.5106904 C0.533599002,3.53023554 0.531912799,3.54744377 0.537603734,3.56911339 C0.558681275,3.65026822 0.583341997,3.75224289 0.60842427,3.83233549 C0.614536757,3.8548549 0.617487613,3.87801164 0.622756998,3.90095594 C0.638986704,3.95831669 0.656270287,4.00059369 0.662382774,4.03161098 C0.667652159,4.05859178 0.671024565,4.09024641 0.678401704,4.11998902 C0.689994352,4.1639656 0.703483978,4.2017812 0.711704218,4.2400217 C0.718449031,4.26997676 0.722875315,4.29717001 0.731095555,4.32733751 C0.741001999,4.36366598 0.755756278,4.39723265 0.770299781,4.43207399 C0.794538952,4.50536828 0.797489808,4.58248662 0.822993632,4.65344399 C0.838169461,4.69550854 0.8584039,4.73608596 0.872315076,4.78112477 C0.883486173,4.82233953 0.886226253,4.87183973 0.899505103,4.91730344 C0.922901173,4.98762347 0.949669649,5.06771607 0.975173473,5.13867344 C1.00489281,5.2221652 1.02344104,5.31415484 1.05147417,5.39297276 C1.06285604,5.42483984 1.06095906,5.45564469 1.07107628,5.49069848 C1.09468313,5.5695164 1.12187315,5.65810689 1.14695543,5.73819949 C1.1608666,5.78090138 1.16128816,5.8214788 1.17730709,5.86205622 C1.20407556,5.92897709 1.24327979,5.98548805 1.26794051,6.05432095 C1.28901805,6.11359373 1.29344433,6.17222916 1.31578653,6.22661565 C1.34487353,6.30012239 1.37901915,6.37469136 1.40705228,6.4518097 C1.42644361,6.50470906 1.43213455,6.55803331 1.45447674,6.60817085 C1.47344653,6.65151009 1.49810725,6.69548666 1.51707704,6.73861345 C1.53014511,6.7766415 1.54342396,6.8144571 1.55607049,6.8526976 C1.56682003,6.88180287 1.59717169,6.93109063 1.61824923,6.97018091 C1.6416453,7.02244293 1.64586081,7.07959123 1.66609525,7.13631464 C1.69686846,7.22235576 1.73839121,7.31009646 1.77464458,7.39040151 C1.78876653,7.42163125 1.79150661,7.45137386 1.80394236,7.48494053 C1.8250199,7.54251372 1.86232715,7.58542806 1.88635555,7.63832742 C1.90890851,7.68888986 1.915021,7.74242655 1.93694164,7.79150186 C1.96940105,7.86330902 1.99406178,7.90027484 1.99364023,8.00309929 C1.99279712,8.01244697 1.99047859,8.01945773 1.9801506,8.02285688 C1.96160236,8.03050498 1.93968172,7.99821301 1.92745675,7.98652841 C1.87307669,7.93299171 1.86485645,7.88115459 1.83113239,7.80679806 C1.77886009,7.69398859 1.71246584,7.58776498 1.66145819,7.47750487 C1.63468971,7.41993168 1.62394017,7.35789709 1.59717169,7.29819942 C1.58157431,7.26229584 1.55817824,7.22575492 1.54215931,7.19048868 C1.51792014,7.13886401 1.50548439,7.08511486 1.47913746,7.03752668 C1.44119789,6.96954357 1.41126778,6.88902608 1.3811269,6.81212018 C1.3691127,6.78343981 1.36805883,6.75539678 1.35562308,6.72777864 C1.34213345,6.69824847 1.32063436,6.67105523 1.30735551,6.64279975 C1.28817495,6.59542402 1.2757392,6.53785082 1.25676941,6.4896253 C1.21566821,6.398273 1.16908685,6.30224686 1.13409813,6.20579582 C1.10206027,6.11763022 1.08646289,6.03243889 1.05421425,5.94214882 C1.04156773,5.90539545 1.02386259,5.86481803 1.01142684,5.82785222 C1.00025575,5.794498 0.999834196,5.76539274 0.988873875,5.7337381 C0.959576093,5.65237081 0.92121497,5.56696703 0.887069354,5.48921135 C0.870207322,5.4507584 0.865781039,5.41273035 0.850815985,5.37194049 C0.833110851,5.32244028 0.811822535,5.26784135 0.794117401,5.21876604 C0.770299781,5.15418209 0.769456679,5.07855088 0.744795957,5.01035532 C0.692312881,4.86440408 0.625286303,4.71186698 0.580812692,4.55741785 C0.572592452,4.52236406 0.574700206,4.48561069 0.564372211,4.44991956 C0.540133039,4.37322611 0.515050766,4.28760988 0.491443921,4.20560525 C0.465096995,4.1144654 0.468047851,4.01801436 0.440014722,3.92899897 C0.404182904,3.81385258 0.363924802,3.69360746 0.328092983,3.58037309 C0.317343437,3.54553174 0.321980496,3.51026551 0.31123095,3.47329969 C0.286991779,3.3847092 0.257272447,3.28145985 0.227974666,3.19966767 C0.213220388,3.15887781 0.213220388,3.11405144 0.198044558,3.07581094 C0.179917874,3.02949745 0.132914959,3.04649323 0.137130467,3.0985428 C0.140292098,3.14613097 0.156521804,3.20752822 0.161369638,3.23195965 C0.166639023,3.26488897 0.166639023,3.29781829 0.174226938,3.33244718 C0.188138115,3.39426932 0.208372553,3.4454691 0.225234586,3.50155517 C0.24336127,3.55976571 0.24336127,3.61436464 0.260223303,3.67427476 C0.268865094,3.70380492 0.280246966,3.73758403 0.289310308,3.76541462 C0.307858544,3.82532473 0.307858544,3.88969624 0.327249881,3.94429517 C0.342847261,3.98614728 0.354439908,4.03840929 0.367929534,4.08429789 C0.376571326,4.11489029 0.374674347,4.13953417 0.38415924,4.16927678 C0.400599722,4.22345082 0.417883305,4.27783731 0.434745337,4.33201135 C0.442965578,4.36345354 0.439593172,4.39085923 0.446970311,4.4199645 C0.458562958,4.46266639 0.468469402,4.5072803 0.480905151,4.54679549 C0.491443921,4.58546088 0.490600819,4.63963492 0.504301221,4.67999989 C0.52769729,4.75499376 0.554887318,4.83444902 0.579969591,4.9049815 C0.608002719,4.98358697 0.611375126,5.06601649 0.63961903,5.14589664 C0.689994352,5.2869616 0.736786491,5.44927127 0.787583364,5.59224825 C0.800651439,5.62900162 0.796225155,5.66639233 0.807607027,5.70633241 C0.824469059,5.76751721 0.837326359,5.82785222 0.85882545,5.88861212 C0.869364221,5.91771739 0.887912456,5.94682266 0.900348205,5.97337856 C0.916367136,6.00800746 0.920582644,6.04539817 0.936601574,6.08087686 C0.948826548,6.10955723 0.967374783,6.1386625 0.978124329,6.16904245 C0.99414326,6.21429371 0.988452324,6.26974243 1.00573591,6.31223188 C1.01922553,6.34664833 1.03861687,6.38403904 1.05105262,6.41994262 C1.06538535,6.45903291 1.0649638,6.50067256 1.08098273,6.53700103 C1.09510468,6.56950546 1.1180792,6.60031031 1.13283348,6.63175249 C1.14653388,6.66192 1.14969551,6.69293729 1.16170971,6.72607906 C1.17414545,6.76049551 1.19290447,6.7955493 1.20702642,6.82741638 C1.22304535,6.86331996 1.22388845,6.90453472 1.24032893,6.94128809 C1.25445088,6.97336762 1.27616075,7.00459736 1.28901805,7.03922626 C1.30082147,7.07555473 1.30250768,7.11528236 1.31494342,7.15309797 C1.33665329,7.2081218 1.37079891,7.25698466 1.39440575,7.30945912 C1.41211089,7.34918675 1.41358631,7.39316333 1.43129145,7.4335283 C1.45110434,7.47984179 1.47955902,7.52509305 1.50042578,7.57034431 C1.52803736,7.63067932 1.54869335,7.69547572 1.57419717,7.75304892 C1.61993543,7.85566092 1.63511126,7.9684704 1.68211418,8.06895793 C1.71668134,8.1439518 1.76284116,8.21469672 1.79572212,8.28777857 C1.81427036,8.32856843 1.81996129,8.37212011 1.83893108,8.41142285 C1.86000862,8.45603676 1.89605121,8.49363992 1.91712875,8.53867873 C1.93272613,8.58329265 1.94558343,8.6289688 1.96413167,8.67230803 C1.99005704,8.72966878 2.02736429,8.78023122 2.05307889,8.8354675 C2.06783317,8.86712213 2.07394565,8.89877677 2.08869993,8.93000651 C2.11715461,8.99119131 2.16331443,9.04260353 2.19134755,9.10336344 C2.20610183,9.14330352 2.22022379,9.18345604 2.23413496,9.22382101 C2.26448662,9.28861741 2.31275419,9.34364124 2.3443705,9.40971233 C2.36671269,9.4581503 2.38188852,9.50935007 2.4103432,9.55332665 C2.45439526,9.62258444 2.48284994,9.66826059 2.5252158,9.73794328 C2.55324892,9.78340699 2.58929152,9.85011541 2.61247681,9.89940317 C2.63460823,9.94784113 2.6717047,9.98841855 2.69446844,10.0364316 C2.71659986,10.0833825 2.74547609,10.1341573 2.77013681,10.1787713 C2.79859149,10.2293337 2.8276785,10.2667244 2.85866248,10.3141001 C2.90967013,10.3916434 2.94170799,10.4744978 2.99166176,10.5528908 C3.02665048,10.6074897 3.06648703,10.662726 3.10484816,10.7154129 C3.2064419,10.8564779 3.35229848,11.1084403 3.41510955,11.1934192 C3.46674953,11.2620396 3.50953693,11.3434069 3.55717217,11.4154265 C3.59384709,11.4710877 3.64000691,11.5261115 3.67942191,11.5781611 C3.71251365,11.6210754 3.73886057,11.6673889 3.77089843,11.7120028 L3.79598071,11.7459944 C5.10025891,13.4171042 6.4405797,14.5235293 7.57560525,15.2490366 L7.5751837,15.249249 C8.17294275,15.6261304 8.49521834,15.7363905 8.49521834,15.7363905 C8.57172981,15.7680451 8.51945751,15.8234939 8.48088561,15.8477129 L1.75124851,20.1854602 C1.72974942,20.1994817 1.67789867,20.2381471 1.69855466,20.2810614 C1.71457359,20.3139907 1.78328637,20.2952954 1.80141306,20.2891344 C7.20211124,18.3781717 11.1212691,16.8071245 13.5171531,15.6611842 C15.9461289,14.4995228 16.762462,13.8347755 16.6735148,13.5042076" id="Brush-wing"></path>
            </g>
        </g>
    </g>
</svg>